<svg width="1834" height="1039" viewBox="0 0 1834 1039" fill="none" xmlns="http://www.w3.org/2000/svg">
<path d="M1351.44 485.2H1316.05V486.096C1320.85 486.288 1322.32 485.968 1322.32 488.72V524.56C1322.32 527.632 1320.28 528.976 1316.76 529.104V530H1334.48V529.104C1328.66 528.976 1327.25 527.76 1327.12 524.944V507.664L1342.48 508.176C1345.04 508.432 1346.19 510.48 1346.32 513.68H1347.22V500.176H1346.32C1346.19 503.376 1345.04 505.296 1342.55 505.552L1327.19 506.064V486.8L1342.8 487.632C1346.52 488.016 1350.68 489.296 1351.7 495.568H1352.92L1351.44 485.2ZM1381.92 526.928C1380.83 526.16 1380.51 524.752 1380.51 522.896V507.92C1380.51 504.272 1379.36 501.392 1377.44 499.536C1375.84 498 1373.6 497.168 1370.72 497.168C1366.05 497.168 1361.37 498.512 1358.17 501.072L1357.34 509.2H1358.24C1359.9 502.8 1364.06 499.408 1367.65 499.28C1370.21 499.216 1372.13 499.984 1373.47 501.392C1375.13 503.056 1375.9 505.68 1376.03 509.136V512.208C1372.83 512.848 1370.14 513.232 1367.65 513.808C1360.48 515.408 1356 517.904 1356 523.856C1356 528.72 1360.03 530.832 1364.77 530.832C1368.29 530.832 1369.76 530 1372.25 528.4L1376.09 524.88V530.832L1386.65 528.08V527.376C1384.29 527.76 1382.81 527.632 1381.92 526.928ZM1366.56 527.568C1364.13 527.568 1360.16 526.672 1360.16 522.896C1360.16 519.376 1362.21 517.392 1366.62 515.856C1368.99 515.024 1372.06 514.32 1376.03 513.424L1376.09 523.344C1372 525.84 1369.37 527.568 1366.56 527.568ZM1411.41 499.92C1407.95 498.192 1405.58 497.168 1400.91 497.168C1397.84 497.168 1395.22 497.808 1392.91 499.216C1390.74 500.56 1389.33 502.608 1389.33 505.488C1389.33 510.16 1393.74 512.144 1401.1 515.664C1406.48 518.224 1408.78 520.336 1408.78 523.28C1408.78 525.136 1408.02 526.736 1406.61 527.76C1405.46 528.656 1403.92 529.168 1402 529.168C1398.61 529.168 1395.79 527.888 1393.68 525.712C1391.76 523.664 1390.42 520.72 1389.97 517.264H1389.07L1389.33 526.992C1391.82 528.464 1396.56 531.088 1400.85 531.088C1403.6 531.088 1406.48 530.256 1408.72 528.848C1411.22 527.248 1413.01 524.88 1413.01 522C1413.01 519.76 1412.24 518.096 1410.45 516.56C1409.04 515.28 1406.99 514.128 1404.3 512.72C1397.46 509.2 1393.62 508.88 1393.62 504.336C1393.62 502.288 1394.58 500.624 1396.05 499.6C1397.2 498.832 1398.61 498.448 1400.14 498.448C1403.66 498.448 1408.59 500.56 1411.15 509.072H1412.05L1411.41 499.92ZM1444.86 501.776L1445.25 510.288H1444.35C1443.01 506.064 1440.89 502.416 1437.76 500.56C1435.97 499.472 1433.92 498.896 1431.55 498.896C1429.12 498.896 1427.13 499.92 1425.66 501.648C1423.29 504.464 1422.21 509.072 1422.21 514.064C1422.21 517.136 1423.1 520.016 1424.64 522.32C1426.81 525.52 1430.27 527.568 1434.43 527.568C1439.04 527.568 1441.21 526.224 1445.12 523.728L1445.82 524.24C1443.84 526.288 1442.11 527.888 1440.32 528.976C1438.27 530.192 1436.09 530.832 1433.21 530.832C1428.93 530.832 1425.28 529.424 1422.65 526.928C1419.71 524.112 1417.98 519.888 1417.98 514.704C1417.98 509.392 1419.77 504.464 1423.04 501.136C1425.53 498.704 1428.8 497.168 1432.7 497.168C1435.33 497.168 1437.44 497.552 1439.42 498.384C1441.28 499.152 1442.94 500.24 1444.86 501.776ZM1457.04 488.464C1457.93 488.464 1458.77 488.08 1459.41 487.44C1459.98 486.864 1460.3 486.032 1460.3 485.136C1460.3 484.24 1459.98 483.472 1459.34 482.832C1458.77 482.256 1457.93 481.872 1457.04 481.872C1456.14 481.872 1455.31 482.192 1454.67 482.832C1454.09 483.408 1453.71 484.24 1453.71 485.136C1453.71 485.904 1453.9 486.544 1454.35 487.12C1454.99 487.952 1455.95 488.464 1457.04 488.464ZM1458.83 525.52V497.936L1448.08 501.84V502.736C1450.38 502.096 1454.54 499.472 1454.54 505.616V525.456C1454.41 527.248 1451.73 528.976 1448.97 529.104V530H1464.27V529.104C1460.94 528.976 1458.96 527.248 1458.83 525.52ZM1490.72 499.92C1487.26 498.192 1484.9 497.168 1480.22 497.168C1477.15 497.168 1474.53 497.808 1472.22 499.216C1470.05 500.56 1468.64 502.608 1468.64 505.488C1468.64 510.16 1473.06 512.144 1480.42 515.664C1485.79 518.224 1488.1 520.336 1488.1 523.28C1488.1 525.136 1487.33 526.736 1485.92 527.76C1484.77 528.656 1483.23 529.168 1481.31 529.168C1477.92 529.168 1475.1 527.888 1472.99 525.712C1471.07 523.664 1469.73 520.72 1469.28 517.264H1468.38L1468.64 526.992C1471.14 528.464 1475.87 531.088 1480.16 531.088C1482.91 531.088 1485.79 530.256 1488.03 528.848C1490.53 527.248 1492.32 524.88 1492.32 522C1492.32 519.76 1491.55 518.096 1489.76 516.56C1488.35 515.28 1486.3 514.128 1483.62 512.72C1476.77 509.2 1472.93 508.88 1472.93 504.336C1472.93 502.288 1473.89 500.624 1475.36 499.6C1476.51 498.832 1477.92 498.448 1479.46 498.448C1482.98 498.448 1487.9 500.56 1490.46 509.072H1491.36L1490.72 499.92ZM1517.71 524.752C1515.41 526.672 1513.87 527.824 1511.06 527.824C1509.71 527.824 1508.56 527.44 1507.73 526.736C1506.7 525.84 1506.06 524.56 1506.06 523.024V499.472L1515.79 499.536V498H1506.06V490.96H1505.1C1505.17 495.056 1503.18 498 1497.62 498V499.472H1501.84L1501.78 524.56C1501.78 526.352 1502.61 527.952 1503.95 529.04C1505.36 530.192 1507.34 530.832 1509.71 530.832C1513.1 530.832 1516.05 528.016 1518.48 525.584L1517.71 524.752ZM1341.91 552.464C1342.81 552.464 1343.64 552.08 1344.28 551.44C1344.86 550.864 1345.18 550.032 1345.18 549.136C1345.18 548.24 1344.86 547.472 1344.22 546.832C1343.64 546.256 1342.81 545.872 1341.91 545.872C1341.02 545.872 1340.18 546.192 1339.54 546.832C1338.97 547.408 1338.58 548.24 1338.58 549.136C1338.58 549.904 1338.78 550.544 1339.22 551.12C1339.86 551.952 1340.82 552.464 1341.91 552.464ZM1343.7 589.52V561.936L1332.95 565.84V566.736C1335.26 566.096 1339.42 563.472 1339.42 569.616V589.456C1339.29 591.248 1336.6 592.976 1333.85 593.104V594H1349.14V593.104C1345.82 592.976 1343.83 591.248 1343.7 589.52ZM1381.29 586.256L1381.16 551.312V544.08L1370.41 547.984V548.88C1372.72 548.24 1376.81 545.68 1376.88 551.632V563.088C1375.02 562.448 1373.04 562 1370.28 562C1366.76 562 1363.63 562.768 1361 564.176C1355.05 567.376 1352.11 573.584 1352.11 580.688C1352.11 584.464 1353.07 587.536 1354.8 589.776C1357.8 593.488 1362.48 594.832 1366.64 594.832C1371.5 594.832 1375.53 590.672 1376.81 589.456V594.832L1387.37 592.016V591.312C1382.25 592.208 1381.29 589.712 1381.29 586.256ZM1368.56 591.568C1359.34 591.568 1355.69 585.168 1355.69 576.272C1355.69 569.936 1360.56 564.24 1368.04 564.24C1372.27 564.24 1374.76 565.776 1376.81 567.632L1376.88 567.568L1376.81 587.92C1374.38 591.312 1370.41 591.568 1368.56 591.568ZM1405.93 591.44C1402.15 591.44 1398.7 589.648 1396.52 586.64C1394.86 584.4 1393.83 581.456 1393.83 578.064C1393.83 577.36 1393.83 576.656 1393.9 575.952L1418.54 576.592C1418.54 572.944 1417.39 569.168 1415.08 566.224C1412.65 563.216 1409 561.168 1404.2 561.168C1401.13 561.168 1398.44 562.128 1396.27 563.728C1394.03 565.328 1392.3 567.632 1391.15 570.384C1390.06 572.88 1389.48 575.76 1389.48 578.704C1389.48 583.504 1390.89 587.216 1393.19 589.904C1396.01 593.168 1400.23 594.832 1404.71 594.832C1410.67 594.832 1414.95 592.464 1418.03 588.624L1417.32 588.112C1413.42 590.608 1410.54 591.44 1405.93 591.44ZM1396.52 566.608C1398.06 564.24 1400.36 562.768 1403.37 562.768C1406.25 562.768 1408.68 564.048 1410.54 565.968C1412.71 568.144 1413.99 571.216 1413.99 573.712L1394.03 574.288C1394.41 571.28 1395.24 568.592 1396.52 566.608ZM1448.61 590.928C1447.52 590.16 1447.2 588.752 1447.2 586.896V571.92C1447.2 568.272 1446.05 565.392 1444.13 563.536C1442.53 562 1440.29 561.168 1437.41 561.168C1432.73 561.168 1428.06 562.512 1424.86 565.072L1424.03 573.2H1424.93C1426.59 566.8 1430.75 563.408 1434.33 563.28C1436.89 563.216 1438.81 563.984 1440.16 565.392C1441.82 567.056 1442.59 569.68 1442.72 573.136V576.208C1439.52 576.848 1436.83 577.232 1434.33 577.808C1427.17 579.408 1422.69 581.904 1422.69 587.856C1422.69 592.72 1426.72 594.832 1431.45 594.832C1434.97 594.832 1436.45 594 1438.94 592.4L1442.78 588.88V594.832L1453.34 592.08V591.376C1450.97 591.76 1449.5 591.632 1448.61 590.928ZM1433.25 591.568C1430.81 591.568 1426.85 590.672 1426.85 586.896C1426.85 583.376 1428.89 581.392 1433.31 579.856C1435.68 579.024 1438.75 578.32 1442.72 577.424L1442.78 587.344C1438.69 589.84 1436.06 591.568 1433.25 591.568ZM1464.02 588.88L1464.08 554.064V543.376L1453.33 547.28V548.176C1455.44 547.6 1459.22 545.296 1459.73 549.84V588.56C1459.73 591.632 1457.04 592.976 1454.16 593.104V594H1469.46V593.104C1466.06 592.976 1464.14 591.696 1464.02 588.88ZM1496.03 563.92C1492.58 562.192 1490.21 561.168 1485.54 561.168C1482.47 561.168 1479.84 561.808 1477.54 563.216C1475.36 564.56 1473.95 566.608 1473.95 569.488C1473.95 574.16 1478.37 576.144 1485.73 579.664C1491.11 582.224 1493.41 584.336 1493.41 587.28C1493.41 589.136 1492.64 590.736 1491.23 591.76C1490.08 592.656 1488.55 593.168 1486.62 593.168C1483.23 593.168 1480.42 591.888 1478.31 589.712C1476.39 587.664 1475.04 584.72 1474.59 581.264H1473.7L1473.95 590.992C1476.45 592.464 1481.19 595.088 1485.47 595.088C1488.23 595.088 1491.11 594.256 1493.35 592.848C1495.84 591.248 1497.63 588.88 1497.63 586C1497.63 583.76 1496.87 582.096 1495.07 580.56C1493.67 579.28 1491.62 578.128 1488.93 576.72C1482.08 573.2 1478.24 572.88 1478.24 568.336C1478.24 566.288 1479.2 564.624 1480.67 563.6C1481.83 562.832 1483.23 562.448 1484.77 562.448C1488.29 562.448 1493.22 564.56 1495.78 573.072H1496.67L1496.03 563.92Z" fill="black"/>
<path d="M805.219 497.104C801.059 497.104 797.987 491.728 794.787 485.648C791.395 479.184 790.115 477.2 788.131 476.816C796.067 475.344 799.459 470.544 799.459 463.824C799.459 458 793.635 453.2 785.379 453.2H765.987V454.096C770.787 454.288 772.259 453.968 772.259 456.72V492.56C772.259 495.632 770.211 496.976 766.691 497.104V498H782.499V497.104C778.979 496.976 777.059 495.632 777.059 492.56V477.328H782.051C785.699 477.328 786.147 479.568 791.203 488.784C793.827 493.584 796.963 498 799.971 498H804.579H806.755L806.883 497.104H805.219ZM777.059 473.808V457.488C777.059 454.352 779.107 454.288 784.483 454.416C789.731 454.544 794.851 459.024 794.851 466.832C794.851 471.184 791.267 475.216 787.171 475.408C781.987 475.664 780.003 474.896 777.059 473.808ZM823.368 495.44C819.592 495.44 816.136 493.648 813.96 490.64C812.296 488.4 811.272 485.456 811.272 482.064C811.272 481.36 811.272 480.656 811.336 479.952L835.976 480.592C835.976 476.944 834.824 473.168 832.52 470.224C830.088 467.216 826.44 465.168 821.64 465.168C818.568 465.168 815.88 466.128 813.704 467.728C811.464 469.328 809.736 471.632 808.584 474.384C807.496 476.88 806.92 479.76 806.92 482.704C806.92 487.504 808.328 491.216 810.632 493.904C813.448 497.168 817.672 498.832 822.152 498.832C828.104 498.832 832.392 496.464 835.464 492.624L834.76 492.112C830.856 494.608 827.976 495.44 823.368 495.44ZM813.96 470.608C815.496 468.24 817.8 466.768 820.808 466.768C823.688 466.768 826.12 468.048 827.976 469.968C830.152 472.144 831.432 475.216 831.432 477.712L811.464 478.288C811.848 475.28 812.68 472.592 813.96 470.608ZM862.971 467.92C859.515 466.192 857.147 465.168 852.475 465.168C849.403 465.168 846.779 465.808 844.475 467.216C842.299 468.56 840.891 470.608 840.891 473.488C840.891 478.16 845.307 480.144 852.667 483.664C858.043 486.224 860.347 488.336 860.347 491.28C860.347 493.136 859.579 494.736 858.171 495.76C857.019 496.656 855.483 497.168 853.562 497.168C850.171 497.168 847.355 495.888 845.243 493.712C843.323 491.664 841.979 488.72 841.531 485.264H840.635L840.891 494.992C843.387 496.464 848.123 499.088 852.411 499.088C855.163 499.088 858.043 498.256 860.283 496.848C862.779 495.248 864.571 492.88 864.571 490C864.571 487.76 863.803 486.096 862.011 484.56C860.603 483.28 858.555 482.128 855.867 480.72C849.019 477.2 845.179 476.88 845.179 472.336C845.179 470.288 846.139 468.624 847.611 467.6C848.763 466.832 850.171 466.448 851.707 466.448C855.227 466.448 860.155 468.56 862.715 477.072H863.611L862.971 467.92ZM877.225 456.464C878.121 456.464 878.953 456.08 879.593 455.44C880.169 454.864 880.489 454.032 880.489 453.136C880.489 452.24 880.169 451.472 879.529 450.832C878.953 450.256 878.121 449.872 877.225 449.872C876.329 449.872 875.497 450.192 874.857 450.832C874.281 451.408 873.897 452.24 873.897 453.136C873.897 453.904 874.089 454.544 874.537 455.12C875.177 455.952 876.137 456.464 877.225 456.464ZM879.017 493.52V465.936L868.265 469.84V470.736C870.569 470.096 874.729 467.472 874.729 473.616V493.456C874.601 495.248 871.913 496.976 869.161 497.104V498H884.457V497.104C881.129 496.976 879.145 495.248 879.017 493.52ZM910.908 467.92C907.452 466.192 905.084 465.168 900.412 465.168C897.34 465.168 894.716 465.808 892.412 467.216C890.236 468.56 888.828 470.608 888.828 473.488C888.828 478.16 893.244 480.144 900.604 483.664C905.98 486.224 908.284 488.336 908.284 491.28C908.284 493.136 907.516 494.736 906.108 495.76C904.956 496.656 903.42 497.168 901.5 497.168C898.108 497.168 895.292 495.888 893.18 493.712C891.26 491.664 889.916 488.72 889.468 485.264H888.572L888.828 494.992C891.324 496.464 896.06 499.088 900.348 499.088C903.1 499.088 905.98 498.256 908.22 496.848C910.716 495.248 912.508 492.88 912.508 490C912.508 487.76 911.74 486.096 909.948 484.56C908.54 483.28 906.492 482.128 903.804 480.72C896.956 477.2 893.116 476.88 893.116 472.336C893.116 470.288 894.076 468.624 895.548 467.6C896.7 466.832 898.108 466.448 899.644 466.448C903.164 466.448 908.092 468.56 910.652 477.072H911.548L910.908 467.92ZM937.899 492.752C935.595 494.672 934.059 495.824 931.243 495.824C929.899 495.824 928.747 495.44 927.915 494.736C926.891 493.84 926.251 492.56 926.251 491.024V467.472L935.979 467.536V466H926.251V458.96H925.291C925.355 463.056 923.371 466 917.803 466V467.472H922.027L921.963 492.56C921.963 494.352 922.795 495.952 924.139 497.04C925.547 498.192 927.531 498.832 929.899 498.832C933.291 498.832 936.235 496.016 938.667 493.584L937.899 492.752ZM967.793 494.928C966.705 494.16 966.385 492.752 966.385 490.896V475.92C966.385 472.272 965.233 469.392 963.313 467.536C961.713 466 959.473 465.168 956.593 465.168C951.921 465.168 947.249 466.512 944.049 469.072L943.217 477.2H944.113C945.777 470.8 949.937 467.408 953.521 467.28C956.081 467.216 958.001 467.984 959.345 469.392C961.009 471.056 961.777 473.68 961.905 477.136V480.208C958.705 480.848 956.017 481.232 953.521 481.808C946.353 483.408 941.873 485.904 941.873 491.856C941.873 496.72 945.905 498.832 950.641 498.832C954.161 498.832 955.633 498 958.128 496.4L961.969 492.88V498.832L972.529 496.08V495.376C970.161 495.76 968.689 495.632 967.793 494.928ZM952.433 495.568C950.001 495.568 946.033 494.672 946.033 490.896C946.033 487.376 948.081 485.392 952.497 483.856C954.865 483.024 957.937 482.32 961.905 481.424L961.969 491.344C957.873 493.84 955.249 495.568 952.433 495.568ZM1006.24 492.56V475.664C1006.24 472.4 1005.09 469.648 1003.11 467.728C1001.44 466.128 999.011 465.168 996.003 465.168C992.803 465.168 987.043 469.328 983.715 471.568V465.104L972.963 469.008V469.904C975.267 469.264 979.427 466.64 979.427 472.784V492.56C979.427 495.632 976.739 496.976 973.859 497.104V498H989.155V497.104C985.635 496.976 983.715 495.632 983.715 492.56V473.168C985.571 471.76 989.539 468.176 993.251 468.176C999.587 468.176 1001.96 473.168 1001.96 480.144V492.56C1001.96 495.632 999.267 496.976 996.387 497.104V498H1011.68V497.104C1008.16 496.976 1006.24 495.632 1006.24 492.56ZM1040.99 469.776L1041.37 478.288H1040.48C1039.13 474.064 1037.02 470.416 1033.88 468.56C1032.09 467.472 1030.04 466.896 1027.68 466.896C1025.24 466.896 1023.26 467.92 1021.79 469.648C1019.42 472.464 1018.33 477.072 1018.33 482.064C1018.33 485.136 1019.23 488.016 1020.76 490.32C1022.94 493.52 1026.4 495.568 1030.56 495.568C1035.16 495.568 1037.34 494.224 1041.24 491.728L1041.95 492.24C1039.96 494.288 1038.24 495.888 1036.44 496.976C1034.4 498.192 1032.22 498.832 1029.34 498.832C1025.05 498.832 1021.4 497.424 1018.78 494.928C1015.84 492.112 1014.11 487.888 1014.11 482.704C1014.11 477.392 1015.9 472.464 1019.16 469.136C1021.66 466.704 1024.92 465.168 1028.83 465.168C1031.45 465.168 1033.56 465.552 1035.55 466.384C1037.4 467.152 1039.07 468.24 1040.99 469.776ZM1061.93 495.44C1058.15 495.44 1054.7 493.648 1052.52 490.64C1050.86 488.4 1049.83 485.456 1049.83 482.064C1049.83 481.36 1049.83 480.656 1049.9 479.952L1074.54 480.592C1074.54 476.944 1073.39 473.168 1071.08 470.224C1068.65 467.216 1065 465.168 1060.2 465.168C1057.13 465.168 1054.44 466.128 1052.27 467.728C1050.03 469.328 1048.3 471.632 1047.15 474.384C1046.06 476.88 1045.48 479.76 1045.48 482.704C1045.48 487.504 1046.89 491.216 1049.19 493.904C1052.01 497.168 1056.23 498.832 1060.71 498.832C1066.67 498.832 1070.95 496.464 1074.03 492.624L1073.32 492.112C1069.42 494.608 1066.54 495.44 1061.93 495.44ZM1052.52 470.608C1054.06 468.24 1056.36 466.768 1059.37 466.768C1062.25 466.768 1064.68 468.048 1066.54 469.968C1068.71 472.144 1069.99 475.216 1069.99 477.712L1050.03 478.288C1050.41 475.28 1051.24 472.592 1052.52 470.608ZM739.912 516.176C731.592 526.48 726.984 534.224 726.984 545.424C726.984 557.968 735.048 568.656 739.912 575.632L741 574.672C733.896 564.624 731.912 554.448 731.912 545.424C731.912 537.872 731.72 528.464 741 517.2L739.912 516.176ZM783.313 561.104C779.153 561.104 776.081 555.728 772.881 549.648C769.489 543.184 768.209 541.2 766.225 540.816C774.161 539.344 777.553 534.544 777.553 527.824C777.553 522 771.729 517.2 763.473 517.2H744.081V518.096C748.881 518.288 750.353 517.968 750.353 520.72V556.56C750.353 559.632 748.305 560.976 744.785 561.104V562H760.593V561.104C757.073 560.976 755.153 559.632 755.153 556.56V541.328H760.145C763.793 541.328 764.241 543.568 769.297 552.784C771.921 557.584 775.057 562 778.065 562H782.673H784.849L784.977 561.104H783.313ZM755.153 537.808V521.488C755.153 518.352 757.201 518.288 762.577 518.416C767.825 518.544 772.945 523.024 772.945 530.832C772.945 535.184 769.361 539.216 765.265 539.408C760.081 539.664 758.097 538.896 755.153 537.808ZM801.462 559.44C797.686 559.44 794.23 557.648 792.054 554.64C790.39 552.4 789.366 549.456 789.366 546.064C789.366 545.36 789.366 544.656 789.43 543.952L814.07 544.592C814.07 540.944 812.918 537.168 810.614 534.224C808.182 531.216 804.534 529.168 799.734 529.168C796.662 529.168 793.974 530.128 791.798 531.728C789.558 533.328 787.83 535.632 786.678 538.384C785.59 540.88 785.014 543.76 785.014 546.704C785.014 551.504 786.422 555.216 788.726 557.904C791.542 561.168 795.766 562.832 800.246 562.832C806.198 562.832 810.486 560.464 813.558 556.624L812.854 556.112C808.95 558.608 806.07 559.44 801.462 559.44ZM792.054 534.608C793.59 532.24 795.894 530.768 798.902 530.768C801.782 530.768 804.214 532.048 806.07 533.968C808.246 536.144 809.526 539.216 809.526 541.712L789.558 542.288C789.942 539.28 790.774 536.592 792.054 534.608ZM817.704 516.176L816.616 517.2C825.896 528.464 825.704 537.744 825.704 545.424C825.704 554.512 823.784 564.624 816.616 574.672L817.704 575.632C822.568 568.656 830.632 557.968 830.632 545.424C830.632 534.224 826.024 526.48 817.704 516.176ZM869.809 520.592L870.385 531.472H869.553C867.249 524.688 864.305 518.16 853.425 518.16C842.737 518.16 838.961 530.64 838.961 539.728C838.961 549.968 846.321 559.888 855.345 559.888C865.137 559.888 867.185 556.752 870.449 547.28H871.537L869.937 558.672C862.577 562.448 859.121 562.768 853.169 562.768C842.737 562.768 833.841 552.848 833.841 542.096C833.841 527.952 841.393 516.368 855.153 516.368C859.697 516.368 865.073 518.16 869.809 520.592ZM892.081 562.96C886.769 563.024 882.865 561.168 879.985 558.096C877.425 555.28 875.953 551.248 875.889 546.448C875.825 541.328 877.425 537.04 880.561 533.968C883.249 531.28 886.641 529.232 891.441 529.168C895.857 529.104 899.505 530.832 902.193 533.008C905.841 535.888 907.825 540.496 907.953 546C908.081 550.736 906.609 554.832 904.049 557.776C901.361 560.848 897.329 562.896 892.081 562.96ZM890.801 530.896C887.089 530.96 884.529 532.56 882.865 534.928C881.137 537.36 880.433 540.752 880.433 544.4C880.433 548.752 881.841 552.848 884.017 555.856C886.449 559.248 889.905 561.36 893.617 561.36C896.817 561.36 899.377 559.76 901.105 557.072C902.641 554.704 903.409 551.504 903.345 547.92C903.281 543.376 901.745 539.088 899.505 536.016C897.201 532.816 894.065 530.832 890.801 530.896ZM944.212 556.56V539.664C944.212 536.4 943.06 533.648 941.076 531.728C939.412 530.128 936.98 529.168 933.972 529.168C930.772 529.168 925.012 533.328 921.684 535.568V529.104L910.932 533.008V533.904C913.236 533.264 917.396 530.64 917.396 536.784V556.56C917.396 559.632 914.708 560.976 911.828 561.104V562H927.124V561.104C923.604 560.976 921.684 559.632 921.684 556.56V537.168C923.54 535.76 927.508 532.176 931.22 532.176C937.556 532.176 939.924 537.168 939.924 544.144V556.56C939.924 559.632 937.236 560.976 934.356 561.104V562H949.652V561.104C946.132 560.976 944.212 559.632 944.212 556.56ZM981.772 570.768L981.708 529.104H981.26L979.916 530.768C977.356 529.68 974.988 529.104 970.956 529.104C966.54 529.104 962.7 530.256 959.756 532.432C955.532 535.568 953.036 540.752 953.036 547.408C953.036 552.784 955.02 556.816 958.412 559.248C960.908 560.976 964.172 561.872 968.012 561.936C970.956 562 976.076 557.584 977.484 556.496V570.768C977.484 573.84 974.796 575.184 971.916 575.312V576.208H987.212V575.312C983.692 575.184 981.772 573.84 981.772 570.768ZM969.484 558.352C966.604 558.352 964.236 557.712 962.316 556.432C958.924 554.128 957.196 550.096 957.196 545.488C957.196 538.832 958.924 535.056 961.74 533.136C963.596 531.856 966.028 531.344 968.716 531.344C972.94 531.344 974.988 532.24 977.484 534.096V554.32C974.476 557.648 971.532 558.352 969.484 558.352ZM1019.73 555.216V555.024L1019.67 533.2V529.168L1008.92 533.072V533.968C1011.22 533.328 1015.38 530.704 1015.38 536.848V537.424L1015.45 554.832C1013.46 556.88 1010.77 559.824 1007.06 559.824C1000.6 559.824 998.358 554.704 998.358 547.856V529.168L987.606 533.072V533.968C989.91 533.328 994.07 530.704 994.07 536.848V552.336C994.07 555.664 995.158 558.48 997.27 560.4C998.998 561.936 1001.37 562.832 1004.31 562.832C1007.51 562.832 1012.12 559.632 1015.45 556.432V562.896L1026.2 558.992V558.096C1023.89 558.736 1019.73 561.36 1019.73 555.216ZM1045.65 559.44C1041.87 559.44 1038.42 557.648 1036.24 554.64C1034.58 552.4 1033.55 549.456 1033.55 546.064C1033.55 545.36 1033.55 544.656 1033.62 543.952L1058.26 544.592C1058.26 540.944 1057.11 537.168 1054.8 534.224C1052.37 531.216 1048.72 529.168 1043.92 529.168C1040.85 529.168 1038.16 530.128 1035.99 531.728C1033.75 533.328 1032.02 535.632 1030.87 538.384C1029.78 540.88 1029.2 543.76 1029.2 546.704C1029.2 551.504 1030.61 555.216 1032.91 557.904C1035.73 561.168 1039.95 562.832 1044.43 562.832C1050.39 562.832 1054.67 560.464 1057.75 556.624L1057.04 556.112C1053.14 558.608 1050.26 559.44 1045.65 559.44ZM1036.24 534.608C1037.78 532.24 1040.08 530.768 1043.09 530.768C1045.97 530.768 1048.4 532.048 1050.26 533.968C1052.43 536.144 1053.71 539.216 1053.71 541.712L1033.75 542.288C1034.13 539.28 1034.96 536.592 1036.24 534.608ZM1085.25 531.92C1081.8 530.192 1079.43 529.168 1074.76 529.168C1071.68 529.168 1069.06 529.808 1066.76 531.216C1064.58 532.56 1063.17 534.608 1063.17 537.488C1063.17 542.16 1067.59 544.144 1074.95 547.664C1080.32 550.224 1082.63 552.336 1082.63 555.28C1082.63 557.136 1081.86 558.736 1080.45 559.76C1079.3 560.656 1077.76 561.168 1075.84 561.168C1072.45 561.168 1069.64 559.888 1067.52 557.712C1065.6 555.664 1064.26 552.72 1063.81 549.264H1062.92L1063.17 558.992C1065.67 560.464 1070.4 563.088 1074.69 563.088C1077.44 563.088 1080.32 562.256 1082.56 560.848C1085.06 559.248 1086.85 556.88 1086.85 554C1086.85 551.76 1086.08 550.096 1084.29 548.56C1082.88 547.28 1080.84 546.128 1078.15 544.72C1071.3 541.2 1067.46 540.88 1067.46 536.336C1067.46 534.288 1068.42 532.624 1069.89 531.6C1071.04 530.832 1072.45 530.448 1073.99 530.448C1077.51 530.448 1082.44 532.56 1085 541.072H1085.89L1085.25 531.92ZM1112.24 556.752C1109.94 558.672 1108.4 559.824 1105.59 559.824C1104.24 559.824 1103.09 559.44 1102.26 558.736C1101.23 557.84 1100.59 556.56 1100.59 555.024V531.472L1110.32 531.536V530H1100.59V522.96H1099.63C1099.7 527.056 1097.71 530 1092.15 530V531.472H1096.37L1096.31 556.56C1096.31 558.352 1097.14 559.952 1098.48 561.04C1099.89 562.192 1101.87 562.832 1104.24 562.832C1107.63 562.832 1110.58 560.016 1113.01 557.584L1112.24 556.752ZM799.109 585.232C796.613 582.8 792.837 581.2 788.293 581.2H768.901V582.096C771.973 582.224 773.701 582.16 774.533 582.8C774.981 583.12 775.173 583.76 775.173 584.72V620.56C775.173 621.968 774.725 623.056 773.893 623.824C772.933 624.656 771.461 625.04 769.605 625.104V626H787.333V625.104C783.877 625.04 781.957 624.528 780.933 623.568C780.229 622.864 779.973 621.84 779.973 620.56V606.8L785.669 607.376C790.981 607.376 795.205 605.968 798.085 603.408C800.901 600.912 802.373 597.264 802.373 592.656C802.373 589.904 801.157 587.28 799.109 585.232ZM796.037 601.68C794.437 603.792 792.133 605.2 789.893 605.264C787.205 605.392 785.413 605.136 783.941 604.688C782.533 604.304 781.381 603.728 779.973 603.024V586.128C779.973 583.888 782.725 582.288 787.397 582.48C790.085 582.544 792.645 583.824 794.629 586C796.677 588.304 798.021 591.568 798.021 595.536C798.021 597.84 797.253 600.016 796.037 601.68ZM833.136 622.928C832.048 622.16 831.728 620.752 831.728 618.896V603.92C831.728 600.272 830.576 597.392 828.656 595.536C827.056 594 824.816 593.168 821.936 593.168C817.264 593.168 812.592 594.512 809.392 597.072L808.56 605.2H809.456C811.12 598.8 815.28 595.408 818.864 595.28C821.424 595.216 823.344 595.984 824.688 597.392C826.352 599.056 827.12 601.68 827.248 605.136V608.208C824.048 608.848 821.36 609.232 818.864 609.808C811.696 611.408 807.216 613.904 807.216 619.856C807.216 624.72 811.248 626.832 815.984 626.832C819.504 626.832 820.976 626 823.472 624.4L827.312 620.88V626.832L837.872 624.08V623.376C835.504 623.76 834.032 623.632 833.136 622.928ZM817.776 623.568C815.344 623.568 811.376 622.672 811.376 618.896C811.376 615.376 813.424 613.392 817.84 611.856C820.208 611.024 823.28 610.32 827.248 609.424L827.312 619.344C823.216 621.84 820.592 623.568 817.776 623.568ZM859.555 620.752C857.251 622.672 855.715 623.824 852.899 623.824C851.555 623.824 850.403 623.44 849.571 622.736C848.547 621.84 847.907 620.56 847.907 619.024V595.472L857.635 595.536V594H847.907V586.96H846.947C847.011 591.056 845.027 594 839.459 594V595.472H843.683L843.619 620.56C843.619 622.352 844.451 623.952 845.795 625.04C847.203 626.192 849.187 626.832 851.555 626.832C854.947 626.832 857.891 624.016 860.323 621.584L859.555 620.752ZM887.593 594.576C886.633 593.744 885.353 593.168 883.945 593.168C879.529 593.168 875.113 597.648 872.361 602.192V593.104L861.609 597.008V597.904C863.145 597.456 865.577 596.112 866.985 597.2C867.625 597.712 868.073 598.8 868.073 600.784V600.976L868.137 621.008C868.073 622.352 867.497 623.248 866.601 623.952C865.577 624.784 864.105 625.168 862.569 625.232V626.128H881.705V625.232C879.529 625.168 877.097 624.784 875.305 623.952C873.577 623.248 872.425 622.16 872.425 620.688L872.361 604.304C874.473 601.232 877.353 595.92 882.217 595.92C883.625 595.92 884.841 596.624 885.801 597.776C887.273 599.504 888.233 602.448 888.489 605.712H889.385L890.025 597.968C889.641 596.944 888.809 595.6 887.593 594.576ZM900.694 584.464C901.59 584.464 902.422 584.08 903.062 583.44C903.638 582.864 903.958 582.032 903.958 581.136C903.958 580.24 903.638 579.472 902.998 578.832C902.422 578.256 901.59 577.872 900.694 577.872C899.798 577.872 898.966 578.192 898.326 578.832C897.75 579.408 897.366 580.24 897.366 581.136C897.366 581.904 897.558 582.544 898.006 583.12C898.646 583.952 899.606 584.464 900.694 584.464ZM902.486 621.52V593.936L891.734 597.84V598.736C894.038 598.096 898.198 595.472 898.198 601.616V621.456C898.07 623.248 895.382 624.976 892.63 625.104V626H907.926V625.104C904.598 624.976 902.614 623.248 902.486 621.52ZM927.081 626.96C921.769 627.024 917.865 625.168 914.985 622.096C912.425 619.28 910.953 615.248 910.889 610.448C910.825 605.328 912.425 601.04 915.561 597.968C918.249 595.28 921.641 593.232 926.441 593.168C930.857 593.104 934.505 594.832 937.193 597.008C940.841 599.888 942.825 604.496 942.953 610C943.081 614.736 941.609 618.832 939.049 621.776C936.361 624.848 932.329 626.896 927.081 626.96ZM925.801 594.896C922.089 594.96 919.529 596.56 917.865 598.928C916.137 601.36 915.433 604.752 915.433 608.4C915.433 612.752 916.841 616.848 919.017 619.856C921.449 623.248 924.905 625.36 928.617 625.36C931.817 625.36 934.377 623.76 936.105 621.072C937.641 618.704 938.409 615.504 938.345 611.92C938.281 607.376 936.745 603.088 934.505 600.016C932.201 596.816 929.065 594.832 925.801 594.896ZM967.18 620.752C964.876 622.672 963.34 623.824 960.524 623.824C959.18 623.824 958.028 623.44 957.196 622.736C956.172 621.84 955.532 620.56 955.532 619.024V595.472L965.26 595.536V594H955.532V586.96H954.572C954.636 591.056 952.652 594 947.084 594V595.472H951.308L951.244 620.56C951.244 622.352 952.076 623.952 953.42 625.04C954.828 626.192 956.812 626.832 959.18 626.832C962.572 626.832 965.516 624.016 967.948 621.584L967.18 620.752ZM978.194 584.464C979.09 584.464 979.922 584.08 980.562 583.44C981.138 582.864 981.458 582.032 981.458 581.136C981.458 580.24 981.138 579.472 980.498 578.832C979.922 578.256 979.09 577.872 978.194 577.872C977.298 577.872 976.466 578.192 975.826 578.832C975.25 579.408 974.866 580.24 974.866 581.136C974.866 581.904 975.058 582.544 975.506 583.12C976.146 583.952 977.106 584.464 978.194 584.464ZM979.986 621.52V593.936L969.234 597.84V598.736C971.538 598.096 975.698 595.472 975.698 601.616V621.456C975.57 623.248 972.882 624.976 970.13 625.104V626H985.426V625.104C982.098 624.976 980.114 623.248 979.986 621.52ZM1011.88 595.92C1008.42 594.192 1006.05 593.168 1001.38 593.168C998.309 593.168 995.685 593.808 993.381 595.216C991.205 596.56 989.797 598.608 989.797 601.488C989.797 606.16 994.213 608.144 1001.57 611.664C1006.95 614.224 1009.25 616.336 1009.25 619.28C1009.25 621.136 1008.48 622.736 1007.08 623.76C1005.92 624.656 1004.39 625.168 1002.47 625.168C999.077 625.168 996.261 623.888 994.149 621.712C992.229 619.664 990.885 616.72 990.437 613.264H989.541L989.797 622.992C992.293 624.464 997.029 627.088 1001.32 627.088C1004.07 627.088 1006.95 626.256 1009.19 624.848C1011.68 623.248 1013.48 620.88 1013.48 618C1013.48 615.76 1012.71 614.096 1010.92 612.56C1009.51 611.28 1007.46 610.128 1004.77 608.72C997.925 605.2 994.085 604.88 994.085 600.336C994.085 598.288 995.045 596.624 996.517 595.6C997.669 594.832 999.077 594.448 1000.61 594.448C1004.13 594.448 1009.06 596.56 1011.62 605.072H1012.52L1011.88 595.92ZM1067.6 620.56V603.664C1067.6 600.528 1066.64 597.84 1064.85 595.984C1063.19 594.192 1060.82 593.168 1057.88 593.168C1055.25 593.168 1050.39 597.264 1047.57 599.568C1047.06 598.032 1046.23 596.752 1045.2 595.728C1043.54 594.128 1041.3 593.168 1038.48 593.168C1035.86 593.168 1031.19 597.136 1028.37 599.376V593.936L1017.62 597.84V598.736C1019.92 598.096 1024.08 595.472 1024.08 601.616L1024.15 604.624L1024.21 620.88C1024.02 623.76 1021.4 624.976 1018.64 625.104V626H1033.94V625.104C1030.42 624.976 1028.5 623.632 1028.5 620.56L1028.37 600.976C1030.04 599.44 1033.17 596.304 1036.18 596.176C1041.62 596.048 1043.92 601.936 1043.92 608.144V620.624C1043.92 623.696 1041.24 625.04 1038.36 625.168V626.064H1053.65V625.168C1050.13 625.04 1048.21 623.696 1048.21 620.624V603.664C1048.21 602.64 1048.08 601.68 1047.89 600.784C1049.62 599.184 1052.76 596.304 1055.57 596.176C1060.95 596.048 1063.32 601.936 1063.32 608.144V620.56C1063.32 623.632 1060.63 624.976 1057.75 625.104V626H1073.04V625.104C1069.52 624.976 1067.6 623.632 1067.6 620.56Z" fill="black"/>
<path d="M268.046 457.232C265.55 454.8 261.774 453.2 257.23 453.2H237.838V454.096C240.91 454.224 242.638 454.16 243.47 454.8C243.918 455.12 244.11 455.76 244.11 456.72V492.56C244.11 493.968 243.662 495.056 242.83 495.824C241.87 496.656 240.398 497.04 238.542 497.104V498H256.27V497.104C252.814 497.04 250.894 496.528 249.87 495.568C249.166 494.864 248.91 493.84 248.91 492.56V478.8L254.606 479.376C259.918 479.376 264.142 477.968 267.022 475.408C269.838 472.912 271.31 469.264 271.31 464.656C271.31 461.904 270.094 459.28 268.046 457.232ZM264.974 473.68C263.374 475.792 261.07 477.2 258.83 477.264C256.142 477.392 254.35 477.136 252.878 476.688C251.47 476.304 250.318 475.728 248.91 475.024V458.128C248.91 455.888 251.662 454.288 256.334 454.48C259.022 454.544 261.582 455.824 263.566 458C265.614 460.304 266.958 463.568 266.958 467.536C266.958 469.84 266.19 472.016 264.974 473.68ZM291.706 498.96C286.394 499.024 282.49 497.168 279.61 494.096C277.05 491.28 275.578 487.248 275.514 482.448C275.45 477.328 277.05 473.04 280.186 469.968C282.874 467.28 286.266 465.232 291.066 465.168C295.482 465.104 299.13 466.832 301.818 469.008C305.466 471.888 307.45 476.496 307.578 482C307.706 486.736 306.234 490.832 303.674 493.776C300.986 496.848 296.954 498.896 291.706 498.96ZM290.426 466.896C286.714 466.96 284.154 468.56 282.49 470.928C280.762 473.36 280.058 476.752 280.058 480.4C280.058 484.752 281.466 488.848 283.642 491.856C286.074 495.248 289.53 497.36 293.242 497.36C296.442 497.36 299.002 495.76 300.73 493.072C302.266 490.704 303.034 487.504 302.97 483.92C302.906 479.376 301.37 475.088 299.13 472.016C296.826 468.816 293.69 466.832 290.426 466.896ZM336.093 466.576C335.133 465.744 333.853 465.168 332.445 465.168C328.029 465.168 323.613 469.648 320.861 474.192V465.104L310.109 469.008V469.904C311.645 469.456 314.077 468.112 315.485 469.2C316.125 469.712 316.573 470.8 316.573 472.784V472.976L316.637 493.008C316.573 494.352 315.997 495.248 315.101 495.952C314.077 496.784 312.605 497.168 311.069 497.232V498.128H330.205V497.232C328.029 497.168 325.597 496.784 323.805 495.952C322.077 495.248 320.925 494.16 320.925 492.688L320.861 476.304C322.973 473.232 325.853 467.92 330.717 467.92C332.125 467.92 333.341 468.624 334.301 469.776C335.773 471.504 336.733 474.448 336.989 477.712H337.885L338.525 469.968C338.141 468.944 337.309 467.6 336.093 466.576ZM361.93 492.752C359.626 494.672 358.09 495.824 355.274 495.824C353.93 495.824 352.778 495.44 351.946 494.736C350.922 493.84 350.282 492.56 350.282 491.024V467.472L360.01 467.536V466H350.282V458.96H349.322C349.386 463.056 347.402 466 341.834 466V467.472H346.058L345.994 492.56C345.994 494.352 346.826 495.952 348.17 497.04C349.578 498.192 351.562 498.832 353.93 498.832C357.322 498.832 360.266 496.016 362.698 493.584L361.93 492.752ZM395.984 491.216V491.024L395.92 469.2V465.168L385.168 469.072V469.968C387.472 469.328 391.632 466.704 391.632 472.848V473.424L391.696 490.832C389.712 492.88 387.024 495.824 383.312 495.824C376.848 495.824 374.608 490.704 374.608 483.856V465.168L363.856 469.072V469.968C366.16 469.328 370.32 466.704 370.32 472.848V488.336C370.32 491.664 371.408 494.48 373.52 496.4C375.248 497.936 377.616 498.832 380.56 498.832C383.76 498.832 388.368 495.632 391.696 492.432V498.896L402.448 494.992V494.096C400.144 494.736 395.984 497.36 395.984 491.216ZM435.403 495.44C433.163 493.648 429.387 492.624 423.819 492.112C419.403 491.664 416.075 491.024 414.539 490.192C413.835 489.872 413.451 489.488 413.451 489.04C413.451 488.208 414.859 487.184 416.779 486.032C417.355 486.096 417.995 486.16 418.571 486.16C423.883 486.16 428.107 484.56 430.475 481.808C431.883 480.208 432.651 478.16 432.651 475.856C432.651 473.424 431.691 471.12 430.027 469.328C433.483 466.896 435.787 467.344 436.683 475.024H437.195C437.195 467.664 437.771 464.464 436.043 464.464C434.955 464.464 431.371 467.024 429.323 468.56C428.683 467.984 427.915 467.408 427.083 466.96C425.163 465.936 422.859 465.296 420.235 465.296C415.883 465.296 412.363 466.704 410.123 469.136C408.459 470.928 407.563 473.232 407.563 475.984C407.563 478.736 408.587 481.104 410.251 482.896C411.467 484.112 413.003 485.072 414.795 485.584C413.003 486.672 411.723 487.504 410.955 488.208C409.995 489.104 409.675 489.808 409.675 490.768C409.675 491.92 410.507 492.752 412.299 493.52C412.747 493.712 413.259 493.84 413.835 494.032C411.211 496.784 406.923 500.56 406.923 504.336C406.923 506.192 407.627 507.728 408.843 508.88C410.763 510.672 414.027 511.632 417.995 511.632C422.923 511.632 427.915 510.48 431.691 508.624C435.531 506.768 438.091 504.208 438.091 501.392C438.091 498.832 437.259 496.848 435.403 495.44ZM413.643 469.456C414.539 467.856 415.947 466.64 417.867 466.384C420.811 466 423.371 466.768 425.163 468.624C426.507 470.032 427.467 472.016 427.851 474.576C428.171 477.072 427.787 479.504 426.763 481.36C425.803 483.216 424.139 484.56 422.027 484.88C419.467 485.264 417.291 484.432 415.627 482.96C414.027 481.488 412.939 479.312 412.555 476.88C412.107 474.32 412.491 471.568 413.643 469.456ZM432.011 506.768C429.707 508.624 425.995 509.84 421.707 509.712C417.931 509.584 414.923 508.816 413.003 507.28C411.531 506.128 410.699 504.528 410.699 502.544C410.699 499.728 413.771 496.08 415.435 494.48C417.803 495.056 420.939 495.568 424.907 496.144C431.627 497.168 434.315 499.024 434.315 502.736C434.315 504.208 433.483 505.616 432.011 506.768ZM472.859 491.216V491.024L472.795 469.2V465.168L462.043 469.072V469.968C464.347 469.328 468.507 466.704 468.507 472.848V473.424L468.571 490.832C466.587 492.88 463.899 495.824 460.187 495.824C453.723 495.824 451.483 490.704 451.483 483.856V465.168L440.731 469.072V469.968C443.035 469.328 447.195 466.704 447.195 472.848V488.336C447.195 491.664 448.283 494.48 450.395 496.4C452.123 497.936 454.491 498.832 457.435 498.832C460.635 498.832 465.243 495.632 468.571 492.432V498.896L479.323 494.992V494.096C477.019 494.736 472.859 497.36 472.859 491.216ZM498.774 495.44C494.998 495.44 491.542 493.648 489.366 490.64C487.702 488.4 486.678 485.456 486.678 482.064C486.678 481.36 486.678 480.656 486.742 479.952L511.382 480.592C511.382 476.944 510.23 473.168 507.926 470.224C505.494 467.216 501.846 465.168 497.046 465.168C493.974 465.168 491.286 466.128 489.11 467.728C486.87 469.328 485.142 471.632 483.99 474.384C482.902 476.88 482.326 479.76 482.326 482.704C482.326 487.504 483.734 491.216 486.038 493.904C488.854 497.168 493.078 498.832 497.558 498.832C503.51 498.832 507.798 496.464 510.87 492.624L510.166 492.112C506.262 494.608 503.382 495.44 498.774 495.44ZM489.366 470.608C490.902 468.24 493.206 466.768 496.214 466.768C499.094 466.768 501.526 468.048 503.382 469.968C505.558 472.144 506.838 475.216 506.838 477.712L486.87 478.288C487.254 475.28 488.086 472.592 489.366 470.608ZM538.377 467.92C534.921 466.192 532.553 465.168 527.881 465.168C524.809 465.168 522.185 465.808 519.881 467.216C517.705 468.56 516.297 470.608 516.297 473.488C516.297 478.16 520.713 480.144 528.073 483.664C533.449 486.224 535.753 488.336 535.753 491.28C535.753 493.136 534.985 494.736 533.577 495.76C532.425 496.656 530.889 497.168 528.969 497.168C525.577 497.168 522.761 495.888 520.649 493.712C518.729 491.664 517.385 488.72 516.937 485.264H516.041L516.297 494.992C518.793 496.464 523.529 499.088 527.817 499.088C530.569 499.088 533.449 498.256 535.689 496.848C538.185 495.248 539.977 492.88 539.977 490C539.977 487.76 539.209 486.096 537.417 484.56C536.009 483.28 533.961 482.128 531.273 480.72C524.425 477.2 520.585 476.88 520.585 472.336C520.585 470.288 521.545 468.624 523.017 467.6C524.169 466.832 525.577 466.448 527.113 466.448C530.633 466.448 535.561 468.56 538.121 477.072H539.017L538.377 467.92ZM561.399 495.44C557.623 495.44 554.167 493.648 551.991 490.64C550.327 488.4 549.303 485.456 549.303 482.064C549.303 481.36 549.303 480.656 549.367 479.952L574.007 480.592C574.007 476.944 572.855 473.168 570.551 470.224C568.119 467.216 564.471 465.168 559.671 465.168C556.599 465.168 553.911 466.128 551.735 467.728C549.495 469.328 547.767 471.632 546.615 474.384C545.527 476.88 544.951 479.76 544.951 482.704C544.951 487.504 546.359 491.216 548.663 493.904C551.479 497.168 555.703 498.832 560.183 498.832C566.135 498.832 570.423 496.464 573.495 492.624L572.791 492.112C568.887 494.608 566.007 495.44 561.399 495.44ZM551.991 470.608C553.527 468.24 555.831 466.768 558.839 466.768C561.719 466.768 564.151 468.048 566.007 469.968C568.183 472.144 569.463 475.216 569.463 477.712L549.495 478.288C549.879 475.28 550.711 472.592 551.991 470.608ZM327.353 556.56V539.664C327.353 536.528 326.393 533.84 324.601 531.984C322.937 530.192 320.569 529.168 317.625 529.168C315.001 529.168 310.137 533.264 307.321 535.568C306.809 534.032 305.977 532.752 304.953 531.728C303.289 530.128 301.049 529.168 298.233 529.168C295.609 529.168 290.937 533.136 288.121 535.376V529.936L277.369 533.84V534.736C279.673 534.096 283.833 531.472 283.833 537.616L283.897 540.624L283.961 556.88C283.769 559.76 281.145 560.976 278.393 561.104V562H293.689V561.104C290.169 560.976 288.249 559.632 288.249 556.56L288.121 536.976C289.785 535.44 292.921 532.304 295.929 532.176C301.369 532.048 303.673 537.936 303.673 544.144V556.624C303.673 559.696 300.985 561.04 298.105 561.168V562.064H313.401V561.168C309.881 561.04 307.961 559.696 307.961 556.624V539.664C307.961 538.64 307.833 537.68 307.641 536.784C309.369 535.184 312.505 532.304 315.321 532.176C320.697 532.048 323.065 537.936 323.065 544.144V556.56C323.065 559.632 320.377 560.976 317.497 561.104V562H332.793V561.104C329.273 560.976 327.353 559.632 327.353 556.56ZM351.649 559.44C347.873 559.44 344.417 557.648 342.241 554.64C340.577 552.4 339.553 549.456 339.553 546.064C339.553 545.36 339.553 544.656 339.617 543.952L364.257 544.592C364.257 540.944 363.105 537.168 360.801 534.224C358.369 531.216 354.721 529.168 349.921 529.168C346.849 529.168 344.161 530.128 341.985 531.728C339.745 533.328 338.017 535.632 336.865 538.384C335.777 540.88 335.201 543.76 335.201 546.704C335.201 551.504 336.609 555.216 338.913 557.904C341.729 561.168 345.953 562.832 350.433 562.832C356.385 562.832 360.673 560.464 363.745 556.624L363.041 556.112C359.137 558.608 356.257 559.44 351.649 559.44ZM342.241 534.608C343.777 532.24 346.081 530.768 349.089 530.768C351.969 530.768 354.401 532.048 356.257 533.968C358.433 536.144 359.713 539.216 359.713 541.712L339.745 542.288C340.129 539.28 340.961 536.592 342.241 534.608ZM396.948 554.256L396.82 519.312V512.08L386.068 515.984V516.88C388.372 516.24 392.468 513.68 392.532 519.632V531.088C390.676 530.448 388.692 530 385.94 530C382.42 530 379.284 530.768 376.66 532.176C370.708 535.376 367.764 541.584 367.764 548.688C367.764 552.464 368.724 555.536 370.452 557.776C373.46 561.488 378.132 562.832 382.292 562.832C387.156 562.832 391.188 558.672 392.468 557.456V562.832L403.028 560.016V559.312C397.908 560.208 396.948 557.712 396.948 554.256ZM384.212 559.568C374.996 559.568 371.348 553.168 371.348 544.272C371.348 537.936 376.212 532.24 383.7 532.24C387.924 532.24 390.42 533.776 392.468 535.632L392.532 535.568L392.468 555.92C390.036 559.312 386.068 559.568 384.212 559.568ZM412.819 520.464C413.715 520.464 414.547 520.08 415.187 519.44C415.763 518.864 416.083 518.032 416.083 517.136C416.083 516.24 415.763 515.472 415.123 514.832C414.547 514.256 413.715 513.872 412.819 513.872C411.923 513.872 411.091 514.192 410.451 514.832C409.875 515.408 409.491 516.24 409.491 517.136C409.491 517.904 409.683 518.544 410.131 519.12C410.771 519.952 411.731 520.464 412.819 520.464ZM414.611 557.52V529.936L403.859 533.84V534.736C406.163 534.096 410.323 531.472 410.323 537.616V557.456C410.195 559.248 407.507 560.976 404.755 561.104V562H420.051V561.104C416.723 560.976 414.739 559.248 414.611 557.52ZM439.462 559.44C435.686 559.44 432.23 557.648 430.054 554.64C428.39 552.4 427.366 549.456 427.366 546.064C427.366 545.36 427.366 544.656 427.43 543.952L452.07 544.592C452.07 540.944 450.918 537.168 448.614 534.224C446.182 531.216 442.534 529.168 437.734 529.168C434.662 529.168 431.974 530.128 429.798 531.728C427.558 533.328 425.83 535.632 424.678 538.384C423.59 540.88 423.014 543.76 423.014 546.704C423.014 551.504 424.422 555.216 426.726 557.904C429.542 561.168 433.766 562.832 438.246 562.832C444.198 562.832 448.486 560.464 451.558 556.624L450.854 556.112C446.95 558.608 444.07 559.44 439.462 559.44ZM430.054 534.608C431.59 532.24 433.894 530.768 436.902 530.768C439.782 530.768 442.214 532.048 444.07 533.968C446.246 536.144 447.526 539.216 447.526 541.712L427.558 542.288C427.942 539.28 428.774 536.592 430.054 534.608ZM473.816 530V530.896C476.824 530.768 480.088 531.92 479 535.76L470.808 556.944L461.72 535.568C460.632 532.368 460.696 530.96 465.112 530.896V530H451.096V530.896C455.576 531.024 456.024 532.88 457.368 535.888L468.44 562H470.04L480.728 535.632C482.52 531.856 484.248 530.96 486.68 530.896V530H473.816ZM512.699 558.928C511.611 558.16 511.291 556.752 511.291 554.896V539.92C511.291 536.272 510.139 533.392 508.219 531.536C506.619 530 504.379 529.168 501.499 529.168C496.827 529.168 492.155 530.512 488.955 533.072L488.123 541.2H489.019C490.683 534.8 494.843 531.408 498.427 531.28C500.987 531.216 502.907 531.984 504.251 533.392C505.915 535.056 506.683 537.68 506.811 541.136V544.208C503.611 544.848 500.923 545.232 498.427 545.808C491.259 547.408 486.779 549.904 486.779 555.856C486.779 560.72 490.811 562.832 495.547 562.832C499.067 562.832 500.539 562 503.035 560.4L506.875 556.88V562.832L517.435 560.08V559.376C515.067 559.76 513.595 559.632 512.699 558.928ZM497.339 559.568C494.907 559.568 490.939 558.672 490.939 554.896C490.939 551.376 492.987 549.392 497.403 547.856C499.771 547.024 502.843 546.32 506.811 545.424L506.875 555.344C502.779 557.84 500.155 559.568 497.339 559.568ZM528.109 556.88L528.173 522.064V511.376L517.421 515.28V516.176C519.533 515.6 523.309 513.296 523.821 517.84V556.56C523.821 559.632 521.133 560.976 518.253 561.104V562H533.549V561.104C530.157 560.976 528.237 559.696 528.109 556.88ZM335.487 620.56V603.664C335.487 600.656 334.591 598.032 332.863 596.176C331.071 594.256 328.511 593.168 325.247 593.168C322.047 593.168 316.351 597.328 313.023 599.568L312.959 584.208V576.08L302.207 579.984V580.88C304.511 580.24 308.671 577.616 308.671 583.76L308.735 586.768L308.799 620.816C308.671 623.696 306.047 624.976 303.231 625.104V626H318.527V625.104C315.007 624.976 313.087 623.632 313.087 620.56L313.023 601.168C314.879 599.76 318.783 596.176 322.495 596.176C328.959 596.176 331.199 601.296 331.199 608.144V620.56C331.199 623.632 328.511 624.976 325.631 625.104V626H340.927V625.104C337.407 624.976 335.487 623.632 335.487 620.56ZM351.038 584.464C351.934 584.464 352.766 584.08 353.406 583.44C353.982 582.864 354.302 582.032 354.302 581.136C354.302 580.24 353.982 579.472 353.342 578.832C352.766 578.256 351.934 577.872 351.038 577.872C350.142 577.872 349.31 578.192 348.67 578.832C348.094 579.408 347.71 580.24 347.71 581.136C347.71 581.904 347.902 582.544 348.35 583.12C348.99 583.952 349.95 584.464 351.038 584.464ZM352.83 621.52V593.936L342.078 597.84V598.736C344.382 598.096 348.542 595.472 348.542 601.616V621.456C348.414 623.248 345.726 624.976 342.974 625.104V626H358.27V625.104C354.942 624.976 352.958 623.248 352.83 621.52ZM384.721 595.92C381.265 594.192 378.897 593.168 374.225 593.168C371.153 593.168 368.529 593.808 366.225 595.216C364.049 596.56 362.641 598.608 362.641 601.488C362.641 606.16 367.057 608.144 374.417 611.664C379.793 614.224 382.097 616.336 382.097 619.28C382.097 621.136 381.329 622.736 379.921 623.76C378.769 624.656 377.233 625.168 375.312 625.168C371.921 625.168 369.105 623.888 366.993 621.712C365.073 619.664 363.729 616.72 363.281 613.264H362.385L362.641 622.992C365.137 624.464 369.873 627.088 374.161 627.088C376.913 627.088 379.793 626.256 382.033 624.848C384.529 623.248 386.321 620.88 386.321 618C386.321 615.76 385.553 614.096 383.761 612.56C382.353 611.28 380.305 610.128 377.617 608.72C370.769 605.2 366.929 604.88 366.929 600.336C366.929 598.288 367.889 596.624 369.361 595.6C370.513 594.832 371.921 594.448 373.457 594.448C376.977 594.448 381.905 596.56 384.465 605.072H385.361L384.721 595.92ZM411.711 620.752C409.407 622.672 407.871 623.824 405.055 623.824C403.711 623.824 402.559 623.44 401.727 622.736C400.703 621.84 400.063 620.56 400.063 619.024V595.472L409.791 595.536V594H400.063V586.96H399.103C399.167 591.056 397.183 594 391.615 594V595.472H395.839L395.775 620.56C395.775 622.352 396.607 623.952 397.951 625.04C399.359 626.192 401.343 626.832 403.711 626.832C407.103 626.832 410.047 624.016 412.479 621.584L411.711 620.752ZM431.237 626.96C425.925 627.024 422.021 625.168 419.141 622.096C416.581 619.28 415.109 615.248 415.045 610.448C414.981 605.328 416.581 601.04 419.717 597.968C422.405 595.28 425.797 593.232 430.597 593.168C435.013 593.104 438.661 594.832 441.349 597.008C444.997 599.888 446.981 604.496 447.109 610C447.237 614.736 445.765 618.832 443.205 621.776C440.517 624.848 436.485 626.896 431.237 626.96ZM429.957 594.896C426.245 594.96 423.685 596.56 422.021 598.928C420.293 601.36 419.589 604.752 419.589 608.4C419.589 612.752 420.997 616.848 423.173 619.856C425.605 623.248 429.061 625.36 432.773 625.36C435.973 625.36 438.533 623.76 440.261 621.072C441.797 618.704 442.565 615.504 442.501 611.92C442.437 607.376 440.901 603.088 438.661 600.016C436.357 596.816 433.221 594.832 429.957 594.896ZM475.624 594.576C474.664 593.744 473.384 593.168 471.976 593.168C467.56 593.168 463.144 597.648 460.392 602.192V593.104L449.64 597.008V597.904C451.176 597.456 453.608 596.112 455.016 597.2C455.656 597.712 456.104 598.8 456.104 600.784V600.976L456.168 621.008C456.104 622.352 455.528 623.248 454.632 623.952C453.608 624.784 452.136 625.168 450.6 625.232V626.128H469.736V625.232C467.56 625.168 465.128 624.784 463.336 623.952C461.608 623.248 460.456 622.16 460.456 620.688L460.392 604.304C462.504 601.232 465.384 595.92 470.248 595.92C471.656 595.92 472.872 596.624 473.832 597.776C475.304 599.504 476.264 602.448 476.52 605.712H477.416L478.056 597.968C477.672 596.944 476.84 595.6 475.624 594.576ZM499.221 594V594.896C502.165 594.768 505.493 595.92 504.405 599.696L496.149 621.008L487.253 599.888C486.037 596.496 485.909 594.96 490.517 594.896V594H476.501V594.896C480.853 595.024 481.429 596.752 482.773 599.696L494.165 626C491.861 631.056 488.853 636.048 486.933 636.048C484.437 636.048 483.029 635.28 482.069 628.88H481.429C481.429 636.24 480.981 640.08 483.925 640.08C486.613 640.08 491.989 634.256 495.445 626C495.573 625.744 495.701 625.424 495.765 625.168L506.133 599.632C507.925 595.856 509.653 594.96 512.085 594.896V594H499.221Z" fill="black"/>
<circle cx="670.5" cy="519.5" r="514.5" stroke="black" stroke-width="10"/>
<circle cx="1164.5" cy="519.5" r="514.5" stroke="black" stroke-width="10"/>
</svg>
