<svg width="1834" height="1039" viewBox="0 0 1834 1039" fill="none" xmlns="http://www.w3.org/2000/svg">
<path d="M1248.58 410.576C1252.03 409.616 1258.18 406.48 1258.18 399.632C1258.18 393.296 1251.58 389.2 1245.63 389.2H1224.77V390.096C1229.57 390.288 1231.04 389.968 1231.04 392.72V430.48C1231.04 433.232 1229.57 432.912 1224.77 433.104V434H1245.44C1254.27 434 1260.22 428.752 1260.22 421.328C1260.22 415.568 1253.95 411.728 1248.58 410.576ZM1235.9 392.208C1237.63 391.12 1239.94 390.224 1244.99 390.8C1250.56 391.376 1253.89 395.856 1253.89 401.744C1253.89 405.52 1250.88 409.552 1245.76 409.488L1235.84 408.592L1235.9 392.208ZM1248 432.144C1244.16 432.784 1241.02 432.72 1235.84 431.184V410.448L1244.22 411.344C1251.71 412.496 1255.62 416.912 1255.62 423.376C1255.62 427.408 1252.35 431.44 1248 432.144ZM1291.45 430.928C1290.36 430.16 1290.04 428.752 1290.04 426.896V411.92C1290.04 408.272 1288.89 405.392 1286.97 403.536C1285.37 402 1283.13 401.168 1280.25 401.168C1275.58 401.168 1270.9 402.512 1267.7 405.072L1266.87 413.2H1267.77C1269.43 406.8 1273.59 403.408 1277.18 403.28C1279.74 403.216 1281.66 403.984 1283 405.392C1284.66 407.056 1285.43 409.68 1285.56 413.136V416.208C1282.36 416.848 1279.67 417.232 1277.18 417.808C1270.01 419.408 1265.53 421.904 1265.53 427.856C1265.53 432.72 1269.56 434.832 1274.3 434.832C1277.82 434.832 1279.29 434 1281.78 432.4L1285.62 428.88V434.832L1296.18 432.08V431.376C1293.82 431.76 1292.34 431.632 1291.45 430.928ZM1276.09 431.568C1273.66 431.568 1269.69 430.672 1269.69 426.896C1269.69 423.376 1271.74 421.392 1276.15 419.856C1278.52 419.024 1281.59 418.32 1285.56 417.424L1285.62 427.344C1281.53 429.84 1278.9 431.568 1276.09 431.568ZM1317.87 428.752C1315.56 430.672 1314.03 431.824 1311.21 431.824C1309.87 431.824 1308.72 431.44 1307.88 430.736C1306.86 429.84 1306.22 428.56 1306.22 427.024V403.472L1315.95 403.536V402H1306.22V394.96H1305.26C1305.32 399.056 1303.34 402 1297.77 402V403.472H1302L1301.93 428.56C1301.93 430.352 1302.76 431.952 1304.11 433.04C1305.52 434.192 1307.5 434.832 1309.87 434.832C1313.26 434.832 1316.2 432.016 1318.64 429.584L1317.87 428.752ZM1341.62 428.752C1339.31 430.672 1337.78 431.824 1334.96 431.824C1333.62 431.824 1332.47 431.44 1331.63 430.736C1330.61 429.84 1329.97 428.56 1329.97 427.024V403.472L1339.7 403.536V402H1329.97V394.96H1329.01C1329.07 399.056 1327.09 402 1321.52 402V403.472H1325.75L1325.68 428.56C1325.68 430.352 1326.51 431.952 1327.86 433.04C1329.27 434.192 1331.25 434.832 1333.62 434.832C1337.01 434.832 1339.95 432.016 1342.39 429.584L1341.62 428.752ZM1354.36 428.88L1354.42 394.064V383.376L1343.67 387.28V388.176C1345.78 387.6 1349.56 385.296 1350.07 389.84V428.56C1350.07 431.632 1347.38 432.976 1344.5 433.104V434H1359.8V433.104C1356.41 432.976 1354.49 431.696 1354.36 428.88ZM1379.34 431.44C1375.56 431.44 1372.1 429.648 1369.93 426.64C1368.26 424.4 1367.24 421.456 1367.24 418.064C1367.24 417.36 1367.24 416.656 1367.3 415.952L1391.94 416.592C1391.94 412.944 1390.79 409.168 1388.49 406.224C1386.06 403.216 1382.41 401.168 1377.61 401.168C1374.54 401.168 1371.85 402.128 1369.67 403.728C1367.43 405.328 1365.7 407.632 1364.55 410.384C1363.46 412.88 1362.89 415.76 1362.89 418.704C1362.89 423.504 1364.3 427.216 1366.6 429.904C1369.42 433.168 1373.64 434.832 1378.12 434.832C1384.07 434.832 1388.36 432.464 1391.43 428.624L1390.73 428.112C1386.82 430.608 1383.94 431.44 1379.34 431.44ZM1369.93 406.608C1371.46 404.24 1373.77 402.768 1376.78 402.768C1379.66 402.768 1382.09 404.048 1383.94 405.968C1386.12 408.144 1387.4 411.216 1387.4 413.712L1367.43 414.288C1367.82 411.28 1368.65 408.592 1369.93 406.608ZM1438.01 430.928C1436.92 430.16 1436.6 428.752 1436.6 426.896V411.92C1436.6 408.272 1435.45 405.392 1433.53 403.536C1431.93 402 1429.69 401.168 1426.81 401.168C1422.14 401.168 1417.47 402.512 1414.27 405.072L1413.44 413.2H1414.33C1416 406.8 1420.16 403.408 1423.74 403.28C1426.3 403.216 1428.22 403.984 1429.56 405.392C1431.23 407.056 1432 409.68 1432.12 413.136V416.208C1428.92 416.848 1426.24 417.232 1423.74 417.808C1416.57 419.408 1412.09 421.904 1412.09 427.856C1412.09 432.72 1416.12 434.832 1420.86 434.832C1424.38 434.832 1425.85 434 1428.35 432.4L1432.19 428.88V434.832L1442.75 432.08V431.376C1440.38 431.76 1438.91 431.632 1438.01 430.928ZM1422.65 431.568C1420.22 431.568 1416.25 430.672 1416.25 426.896C1416.25 423.376 1418.3 421.392 1422.72 419.856C1425.08 419.024 1428.16 418.32 1432.12 417.424L1432.19 427.344C1428.09 429.84 1425.47 431.568 1422.65 431.568ZM1473.97 431.44C1471.73 429.648 1467.95 428.624 1462.38 428.112C1457.97 427.664 1454.64 427.024 1453.1 426.192C1452.4 425.872 1452.01 425.488 1452.01 425.04C1452.01 424.208 1453.42 423.184 1455.34 422.032C1455.92 422.096 1456.56 422.16 1457.13 422.16C1462.45 422.16 1466.67 420.56 1469.04 417.808C1470.45 416.208 1471.21 414.16 1471.21 411.856C1471.21 409.424 1470.25 407.12 1468.59 405.328C1472.05 402.896 1474.35 403.344 1475.25 411.024H1475.76C1475.76 403.664 1476.33 400.464 1474.61 400.464C1473.52 400.464 1469.93 403.024 1467.89 404.56C1467.25 403.984 1466.48 403.408 1465.65 402.96C1463.73 401.936 1461.42 401.296 1458.8 401.296C1454.45 401.296 1450.93 402.704 1448.69 405.136C1447.02 406.928 1446.13 409.232 1446.13 411.984C1446.13 414.736 1447.15 417.104 1448.81 418.896C1450.03 420.112 1451.57 421.072 1453.36 421.584C1451.57 422.672 1450.29 423.504 1449.52 424.208C1448.56 425.104 1448.24 425.808 1448.24 426.768C1448.24 427.92 1449.07 428.752 1450.86 429.52C1451.31 429.712 1451.82 429.84 1452.4 430.032C1449.77 432.784 1445.49 436.56 1445.49 440.336C1445.49 442.192 1446.19 443.728 1447.41 444.88C1449.33 446.672 1452.59 447.632 1456.56 447.632C1461.49 447.632 1466.48 446.48 1470.25 444.624C1474.09 442.768 1476.65 440.208 1476.65 437.392C1476.65 434.832 1475.82 432.848 1473.97 431.44ZM1452.21 405.456C1453.1 403.856 1454.51 402.64 1456.43 402.384C1459.37 402 1461.93 402.768 1463.73 404.624C1465.07 406.032 1466.03 408.016 1466.41 410.576C1466.73 413.072 1466.35 415.504 1465.33 417.36C1464.37 419.216 1462.7 420.56 1460.59 420.88C1458.03 421.264 1455.85 420.432 1454.19 418.96C1452.59 417.488 1451.5 415.312 1451.12 412.88C1450.67 410.32 1451.05 407.568 1452.21 405.456ZM1470.57 442.768C1468.27 444.624 1464.56 445.84 1460.27 445.712C1456.49 445.584 1453.49 444.816 1451.57 443.28C1450.09 442.128 1449.26 440.528 1449.26 438.544C1449.26 435.728 1452.33 432.08 1454 430.48C1456.37 431.056 1459.5 431.568 1463.47 432.144C1470.19 433.168 1472.88 435.024 1472.88 438.736C1472.88 440.208 1472.05 441.616 1470.57 442.768ZM1507.26 430.928C1506.17 430.16 1505.85 428.752 1505.85 426.896V411.92C1505.85 408.272 1504.7 405.392 1502.78 403.536C1501.18 402 1498.94 401.168 1496.06 401.168C1491.39 401.168 1486.72 402.512 1483.52 405.072L1482.69 413.2H1483.58C1485.25 406.8 1489.41 403.408 1492.99 403.28C1495.55 403.216 1497.47 403.984 1498.81 405.392C1500.48 407.056 1501.25 409.68 1501.37 413.136V416.208C1498.17 416.848 1495.49 417.232 1492.99 417.808C1485.82 419.408 1481.34 421.904 1481.34 427.856C1481.34 432.72 1485.37 434.832 1490.11 434.832C1493.63 434.832 1495.1 434 1497.6 432.4L1501.44 428.88V434.832L1512 432.08V431.376C1509.63 431.76 1508.16 431.632 1507.26 430.928ZM1491.9 431.568C1489.47 431.568 1485.5 430.672 1485.5 426.896C1485.5 423.376 1487.55 421.392 1491.97 419.856C1494.33 419.024 1497.41 418.32 1501.37 417.424L1501.44 427.344C1497.34 429.84 1494.72 431.568 1491.9 431.568ZM1520.94 392.464C1521.84 392.464 1522.67 392.08 1523.31 391.44C1523.89 390.864 1524.21 390.032 1524.21 389.136C1524.21 388.24 1523.89 387.472 1523.25 386.832C1522.67 386.256 1521.84 385.872 1520.94 385.872C1520.05 385.872 1519.22 386.192 1518.58 386.832C1518 387.408 1517.62 388.24 1517.62 389.136C1517.62 389.904 1517.81 390.544 1518.26 391.12C1518.9 391.952 1519.86 392.464 1520.94 392.464ZM1522.74 429.52V401.936L1511.98 405.84V406.736C1514.29 406.096 1518.45 403.472 1518.45 409.616V429.456C1518.32 431.248 1515.63 432.976 1512.88 433.104V434H1528.18V433.104C1524.85 432.976 1522.86 431.248 1522.74 429.52ZM1563.59 428.56V411.664C1563.59 408.4 1562.43 405.648 1560.45 403.728C1558.79 402.128 1556.35 401.168 1553.35 401.168C1550.15 401.168 1544.39 405.328 1541.06 407.568V401.104L1530.31 405.008V405.904C1532.61 405.264 1536.77 402.64 1536.77 408.784V428.56C1536.77 431.632 1534.08 432.976 1531.2 433.104V434H1546.5V433.104C1542.98 432.976 1541.06 431.632 1541.06 428.56V409.168C1542.91 407.76 1546.88 404.176 1550.59 404.176C1556.93 404.176 1559.3 409.168 1559.3 416.144V428.56C1559.3 431.632 1556.61 432.976 1553.73 433.104V434H1569.03V433.104C1565.51 432.976 1563.59 431.632 1563.59 428.56ZM1594.94 403.92C1591.48 402.192 1589.12 401.168 1584.44 401.168C1581.37 401.168 1578.75 401.808 1576.44 403.216C1574.27 404.56 1572.86 406.608 1572.86 409.488C1572.86 414.16 1577.28 416.144 1584.64 419.664C1590.01 422.224 1592.32 424.336 1592.32 427.28C1592.32 429.136 1591.55 430.736 1590.14 431.76C1588.99 432.656 1587.45 433.168 1585.53 433.168C1582.14 433.168 1579.32 431.888 1577.21 429.712C1575.29 427.664 1573.95 424.72 1573.5 421.264H1572.6L1572.86 430.992C1575.36 432.464 1580.09 435.088 1584.38 435.088C1587.13 435.088 1590.01 434.256 1592.25 432.848C1594.75 431.248 1596.54 428.88 1596.54 426C1596.54 423.76 1595.77 422.096 1593.98 420.56C1592.57 419.28 1590.52 418.128 1587.84 416.72C1580.99 413.2 1577.15 412.88 1577.15 408.336C1577.15 406.288 1578.11 404.624 1579.58 403.6C1580.73 402.832 1582.14 402.448 1583.68 402.448C1587.2 402.448 1592.12 404.56 1594.68 413.072H1595.58L1594.94 403.92ZM1621.93 428.752C1619.63 430.672 1618.09 431.824 1615.27 431.824C1613.93 431.824 1612.78 431.44 1611.95 430.736C1610.92 429.84 1610.28 428.56 1610.28 427.024V403.472L1620.01 403.536V402H1610.28V394.96H1609.32C1609.39 399.056 1607.4 402 1601.83 402V403.472H1606.06L1605.99 428.56C1605.99 430.352 1606.83 431.952 1608.17 433.04C1609.58 434.192 1611.56 434.832 1613.93 434.832C1617.32 434.832 1620.27 432.016 1622.7 429.584L1621.93 428.752ZM1359.92 498.96C1354.61 499.024 1350.71 497.168 1347.83 494.096C1345.27 491.28 1343.8 487.248 1343.73 482.448C1343.67 477.328 1345.27 473.04 1348.4 469.968C1351.09 467.28 1354.48 465.232 1359.28 465.168C1363.7 465.104 1367.35 466.832 1370.04 469.008C1373.68 471.888 1375.67 476.496 1375.8 482C1375.92 486.736 1374.45 490.832 1371.89 493.776C1369.2 496.848 1365.17 498.896 1359.92 498.96ZM1358.64 466.896C1354.93 466.96 1352.37 468.56 1350.71 470.928C1348.98 473.36 1348.28 476.752 1348.28 480.4C1348.28 484.752 1349.68 488.848 1351.86 491.856C1354.29 495.248 1357.75 497.36 1361.46 497.36C1364.66 497.36 1367.22 495.76 1368.95 493.072C1370.48 490.704 1371.25 487.504 1371.19 483.92C1371.12 479.376 1369.59 475.088 1367.35 472.016C1365.04 468.816 1361.91 466.832 1358.64 466.896ZM1400.02 492.752C1397.72 494.672 1396.18 495.824 1393.37 495.824C1392.02 495.824 1390.87 495.44 1390.04 494.736C1389.02 493.84 1388.38 492.56 1388.38 491.024V467.472L1398.1 467.536V466H1388.38V458.96H1387.42C1387.48 463.056 1385.5 466 1379.93 466V467.472H1384.15L1384.09 492.56C1384.09 494.352 1384.92 495.952 1386.26 497.04C1387.67 498.192 1389.66 498.832 1392.02 498.832C1395.42 498.832 1398.36 496.016 1400.79 493.584L1400.02 492.752ZM1435.55 492.56V475.664C1435.55 472.656 1434.65 470.032 1432.93 468.176C1431.13 466.256 1428.57 465.168 1425.31 465.168C1422.11 465.168 1416.41 469.328 1413.09 471.568L1413.02 456.208V448.08L1402.27 451.984V452.88C1404.57 452.24 1408.73 449.616 1408.73 455.76L1408.8 458.768L1408.86 492.816C1408.73 495.696 1406.11 496.976 1403.29 497.104V498H1418.59V497.104C1415.07 496.976 1413.15 495.632 1413.15 492.56L1413.09 473.168C1414.94 471.76 1418.85 468.176 1422.56 468.176C1429.02 468.176 1431.26 473.296 1431.26 480.144V492.56C1431.26 495.632 1428.57 496.976 1425.69 497.104V498H1440.99V497.104C1437.47 496.976 1435.55 495.632 1435.55 492.56ZM1459.87 495.44C1456.09 495.44 1452.64 493.648 1450.46 490.64C1448.8 488.4 1447.77 485.456 1447.77 482.064C1447.77 481.36 1447.77 480.656 1447.84 479.952L1472.48 480.592C1472.48 476.944 1471.32 473.168 1469.02 470.224C1466.59 467.216 1462.94 465.168 1458.14 465.168C1455.07 465.168 1452.38 466.128 1450.2 467.728C1447.96 469.328 1446.24 471.632 1445.08 474.384C1444 476.88 1443.42 479.76 1443.42 482.704C1443.42 487.504 1444.83 491.216 1447.13 493.904C1449.95 497.168 1454.17 498.832 1458.65 498.832C1464.6 498.832 1468.89 496.464 1471.96 492.624L1471.26 492.112C1467.36 494.608 1464.48 495.44 1459.87 495.44ZM1450.46 470.608C1452 468.24 1454.3 466.768 1457.31 466.768C1460.19 466.768 1462.62 468.048 1464.48 469.968C1466.65 472.144 1467.93 475.216 1467.93 477.712L1447.96 478.288C1448.35 475.28 1449.18 472.592 1450.46 470.608ZM1500.69 466.576C1499.73 465.744 1498.45 465.168 1497.04 465.168C1492.62 465.168 1488.21 469.648 1485.45 474.192V465.104L1474.7 469.008V469.904C1476.24 469.456 1478.67 468.112 1480.08 469.2C1480.72 469.712 1481.17 470.8 1481.17 472.784V472.976L1481.23 493.008C1481.17 494.352 1480.59 495.248 1479.69 495.952C1478.67 496.784 1477.2 497.168 1475.66 497.232V498.128H1494.8V497.232C1492.62 497.168 1490.19 496.784 1488.4 495.952C1486.67 495.248 1485.52 494.16 1485.52 492.688L1485.45 476.304C1487.57 473.232 1490.45 467.92 1495.31 467.92C1496.72 467.92 1497.93 468.624 1498.89 469.776C1500.37 471.504 1501.33 474.448 1501.58 477.712H1502.48L1503.12 469.968C1502.73 468.944 1501.9 467.6 1500.69 466.576ZM1287.34 559.44C1283.56 559.44 1280.1 557.648 1277.93 554.64C1276.26 552.4 1275.24 549.456 1275.24 546.064C1275.24 545.36 1275.24 544.656 1275.3 543.952L1299.94 544.592C1299.94 540.944 1298.79 537.168 1296.49 534.224C1294.06 531.216 1290.41 529.168 1285.61 529.168C1282.54 529.168 1279.85 530.128 1277.67 531.728C1275.43 533.328 1273.7 535.632 1272.55 538.384C1271.46 540.88 1270.89 543.76 1270.89 546.704C1270.89 551.504 1272.3 555.216 1274.6 557.904C1277.42 561.168 1281.64 562.832 1286.12 562.832C1292.07 562.832 1296.36 560.464 1299.43 556.624L1298.73 556.112C1294.82 558.608 1291.94 559.44 1287.34 559.44ZM1277.93 534.608C1279.46 532.24 1281.77 530.768 1284.78 530.768C1287.66 530.768 1290.09 532.048 1291.94 533.968C1294.12 536.144 1295.4 539.216 1295.4 541.712L1275.43 542.288C1275.82 539.28 1276.65 536.592 1277.93 534.608ZM1323.87 556.752C1321.56 558.672 1320.03 559.824 1317.21 559.824C1315.87 559.824 1314.72 559.44 1313.88 558.736C1312.86 557.84 1312.22 556.56 1312.22 555.024V531.472L1321.95 531.536V530H1312.22V522.96H1311.26C1311.32 527.056 1309.34 530 1303.77 530V531.472H1308L1307.93 556.56C1307.93 558.352 1308.76 559.952 1310.11 561.04C1311.52 562.192 1313.5 562.832 1315.87 562.832C1319.26 562.832 1322.2 560.016 1324.64 557.584L1323.87 556.752ZM1359.39 556.56V539.664C1359.39 536.656 1358.5 534.032 1356.77 532.176C1354.98 530.256 1352.42 529.168 1349.15 529.168C1345.95 529.168 1340.26 533.328 1336.93 535.568L1336.87 520.208V512.08L1326.11 515.984V516.88C1328.42 516.24 1332.58 513.616 1332.58 519.76L1332.64 522.768L1332.71 556.816C1332.58 559.696 1329.95 560.976 1327.14 561.104V562H1342.43V561.104C1338.91 560.976 1336.99 559.632 1336.99 556.56L1336.93 537.168C1338.79 535.76 1342.69 532.176 1346.4 532.176C1352.87 532.176 1355.11 537.296 1355.11 544.144V556.56C1355.11 559.632 1352.42 560.976 1349.54 561.104V562H1364.83V561.104C1361.31 560.976 1359.39 559.632 1359.39 556.56ZM1399.71 556.56V539.664C1399.71 536.4 1398.56 533.648 1396.58 531.728C1394.91 530.128 1392.48 529.168 1389.47 529.168C1386.27 529.168 1380.51 533.328 1377.18 535.568V529.104L1366.43 533.008V533.904C1368.74 533.264 1372.9 530.64 1372.9 536.784V556.56C1372.9 559.632 1370.21 560.976 1367.33 561.104V562H1382.62V561.104C1379.1 560.976 1377.18 559.632 1377.18 556.56V537.168C1379.04 535.76 1383.01 532.176 1386.72 532.176C1393.06 532.176 1395.42 537.168 1395.42 544.144V556.56C1395.42 559.632 1392.74 560.976 1389.86 561.104V562H1405.15V561.104C1401.63 560.976 1399.71 559.632 1399.71 556.56ZM1415.26 520.464C1416.15 520.464 1416.98 520.08 1417.62 519.44C1418.2 518.864 1418.52 518.032 1418.52 517.136C1418.52 516.24 1418.2 515.472 1417.56 514.832C1416.98 514.256 1416.15 513.872 1415.26 513.872C1414.36 513.872 1413.53 514.192 1412.89 514.832C1412.31 515.408 1411.93 516.24 1411.93 517.136C1411.93 517.904 1412.12 518.544 1412.57 519.12C1413.21 519.952 1414.17 520.464 1415.26 520.464ZM1417.05 557.52V529.936L1406.3 533.84V534.736C1408.6 534.096 1412.76 531.472 1412.76 537.616V557.456C1412.63 559.248 1409.94 560.976 1407.19 561.104V562H1422.49V561.104C1419.16 560.976 1417.18 559.248 1417.05 557.52ZM1452.33 533.776L1452.72 542.288H1451.82C1450.48 538.064 1448.36 534.416 1445.23 532.56C1443.44 531.472 1441.39 530.896 1439.02 530.896C1436.59 530.896 1434.6 531.92 1433.13 533.648C1430.76 536.464 1429.68 541.072 1429.68 546.064C1429.68 549.136 1430.57 552.016 1432.11 554.32C1434.28 557.52 1437.74 559.568 1441.9 559.568C1446.51 559.568 1448.68 558.224 1452.59 555.728L1453.29 556.24C1451.31 558.288 1449.58 559.888 1447.79 560.976C1445.74 562.192 1443.56 562.832 1440.68 562.832C1436.4 562.832 1432.75 561.424 1430.12 558.928C1427.18 556.112 1425.45 551.888 1425.45 546.704C1425.45 541.392 1427.24 536.464 1430.51 533.136C1433 530.704 1436.27 529.168 1440.17 529.168C1442.8 529.168 1444.91 529.552 1446.89 530.384C1448.75 531.152 1450.41 532.24 1452.33 533.776ZM1464.51 520.464C1465.4 520.464 1466.23 520.08 1466.87 519.44C1467.45 518.864 1467.77 518.032 1467.77 517.136C1467.77 516.24 1467.45 515.472 1466.81 514.832C1466.23 514.256 1465.4 513.872 1464.51 513.872C1463.61 513.872 1462.78 514.192 1462.14 514.832C1461.56 515.408 1461.18 516.24 1461.18 517.136C1461.18 517.904 1461.37 518.544 1461.82 519.12C1462.46 519.952 1463.42 520.464 1464.51 520.464ZM1466.3 557.52V529.936L1455.55 533.84V534.736C1457.85 534.096 1462.01 531.472 1462.01 537.616V557.456C1461.88 559.248 1459.19 560.976 1456.44 561.104V562H1471.74V561.104C1468.41 560.976 1466.43 559.248 1466.3 557.52ZM1495.12 556.752C1492.81 558.672 1491.28 559.824 1488.46 559.824C1487.12 559.824 1485.97 559.44 1485.13 558.736C1484.11 557.84 1483.47 556.56 1483.47 555.024V531.472L1493.2 531.536V530H1483.47V522.96H1482.51C1482.57 527.056 1480.59 530 1475.02 530V531.472H1479.25L1479.18 556.56C1479.18 558.352 1480.01 559.952 1481.36 561.04C1482.77 562.192 1484.75 562.832 1487.12 562.832C1490.51 562.832 1493.45 560.016 1495.89 557.584L1495.12 556.752ZM1506.13 520.464C1507.03 520.464 1507.86 520.08 1508.5 519.44C1509.08 518.864 1509.4 518.032 1509.4 517.136C1509.4 516.24 1509.08 515.472 1508.44 514.832C1507.86 514.256 1507.03 513.872 1506.13 513.872C1505.24 513.872 1504.4 514.192 1503.76 514.832C1503.19 515.408 1502.8 516.24 1502.8 517.136C1502.8 517.904 1503 518.544 1503.44 519.12C1504.08 519.952 1505.04 520.464 1506.13 520.464ZM1507.92 557.52V529.936L1497.17 533.84V534.736C1499.48 534.096 1503.64 531.472 1503.64 537.616V557.456C1503.51 559.248 1500.82 560.976 1498.07 561.104V562H1513.36V561.104C1510.04 560.976 1508.05 559.248 1507.92 557.52ZM1532.77 559.44C1529 559.44 1525.54 557.648 1523.37 554.64C1521.7 552.4 1520.68 549.456 1520.68 546.064C1520.68 545.36 1520.68 544.656 1520.74 543.952L1545.38 544.592C1545.38 540.944 1544.23 537.168 1541.93 534.224C1539.49 531.216 1535.85 529.168 1531.05 529.168C1527.97 529.168 1525.29 530.128 1523.11 531.728C1520.87 533.328 1519.14 535.632 1517.99 538.384C1516.9 540.88 1516.33 543.76 1516.33 546.704C1516.33 551.504 1517.73 555.216 1520.04 557.904C1522.85 561.168 1527.08 562.832 1531.56 562.832C1537.51 562.832 1541.8 560.464 1544.87 556.624L1544.17 556.112C1540.26 558.608 1537.38 559.44 1532.77 559.44ZM1523.37 534.608C1524.9 532.24 1527.21 530.768 1530.21 530.768C1533.09 530.768 1535.53 532.048 1537.38 533.968C1539.56 536.144 1540.84 539.216 1540.84 541.712L1520.87 542.288C1521.25 539.28 1522.09 536.592 1523.37 534.608ZM1572.38 531.92C1568.92 530.192 1566.55 529.168 1561.88 529.168C1558.81 529.168 1556.18 529.808 1553.88 531.216C1551.7 532.56 1550.3 534.608 1550.3 537.488C1550.3 542.16 1554.71 544.144 1562.07 547.664C1567.45 550.224 1569.75 552.336 1569.75 555.28C1569.75 557.136 1568.98 558.736 1567.58 559.76C1566.42 560.656 1564.89 561.168 1562.97 561.168C1559.58 561.168 1556.76 559.888 1554.65 557.712C1552.73 555.664 1551.38 552.72 1550.94 549.264H1550.04L1550.3 558.992C1552.79 560.464 1557.53 563.088 1561.82 563.088C1564.57 563.088 1567.45 562.256 1569.69 560.848C1572.18 559.248 1573.98 556.88 1573.98 554C1573.98 551.76 1573.21 550.096 1571.42 548.56C1570.01 547.28 1567.96 546.128 1565.27 544.72C1558.42 541.2 1554.58 540.88 1554.58 536.336C1554.58 534.288 1555.54 532.624 1557.02 531.6C1558.17 530.832 1559.58 530.448 1561.11 530.448C1564.63 530.448 1569.56 532.56 1572.12 541.072H1573.02L1572.38 531.92ZM1396.36 622.928C1395.27 622.16 1394.95 620.752 1394.95 618.896V603.92C1394.95 600.272 1393.8 597.392 1391.88 595.536C1390.28 594 1388.04 593.168 1385.16 593.168C1380.48 593.168 1375.81 594.512 1372.61 597.072L1371.78 605.2H1372.68C1374.34 598.8 1378.5 595.408 1382.08 595.28C1384.64 595.216 1386.56 595.984 1387.91 597.392C1389.57 599.056 1390.34 601.68 1390.47 605.136V608.208C1387.27 608.848 1384.58 609.232 1382.08 609.808C1374.92 611.408 1370.44 613.904 1370.44 619.856C1370.44 624.72 1374.47 626.832 1379.2 626.832C1382.72 626.832 1384.2 626 1386.69 624.4L1390.53 620.88V626.832L1401.09 624.08V623.376C1398.72 623.76 1397.25 623.632 1396.36 622.928ZM1381 623.568C1378.56 623.568 1374.6 622.672 1374.6 618.896C1374.6 615.376 1376.64 613.392 1381.06 611.856C1383.43 611.024 1386.5 610.32 1390.47 609.424L1390.53 619.344C1386.44 621.84 1383.81 623.568 1381 623.568ZM1434.81 620.56V603.664C1434.81 600.4 1433.65 597.648 1431.67 595.728C1430.01 594.128 1427.57 593.168 1424.57 593.168C1421.37 593.168 1415.61 597.328 1412.28 599.568V593.104L1401.53 597.008V597.904C1403.83 597.264 1407.99 594.64 1407.99 600.784V620.56C1407.99 623.632 1405.3 624.976 1402.42 625.104V626H1417.72V625.104C1414.2 624.976 1412.28 623.632 1412.28 620.56V601.168C1414.13 599.76 1418.1 596.176 1421.81 596.176C1428.15 596.176 1430.52 601.168 1430.52 608.144V620.56C1430.52 623.632 1427.83 624.976 1424.95 625.104V626H1440.25V625.104C1436.73 624.976 1434.81 623.632 1434.81 620.56ZM1471.85 618.256L1471.73 583.312V576.08L1460.97 579.984V580.88C1463.28 580.24 1467.37 577.68 1467.44 583.632V595.088C1465.58 594.448 1463.6 594 1460.85 594C1457.33 594 1454.19 594.768 1451.57 596.176C1445.61 599.376 1442.67 605.584 1442.67 612.688C1442.67 616.464 1443.63 619.536 1445.36 621.776C1448.37 625.488 1453.04 626.832 1457.2 626.832C1462.06 626.832 1466.09 622.672 1467.37 621.456V626.832L1477.93 624.016V623.312C1472.81 624.208 1471.85 621.712 1471.85 618.256ZM1459.12 623.568C1449.9 623.568 1446.25 617.168 1446.25 608.272C1446.25 601.936 1451.12 596.24 1458.61 596.24C1462.83 596.24 1465.33 597.776 1467.37 599.632L1467.44 599.568L1467.37 619.92C1464.94 623.312 1460.97 623.568 1459.12 623.568ZM1275.71 684.56V667.664C1275.71 664.4 1274.56 661.648 1272.58 659.728C1270.91 658.128 1268.48 657.168 1265.47 657.168C1262.27 657.168 1256.51 661.328 1253.18 663.568V657.104L1242.43 661.008V661.904C1244.74 661.264 1248.9 658.64 1248.9 664.784V684.56C1248.9 687.632 1246.21 688.976 1243.33 689.104V690H1258.62V689.104C1255.1 688.976 1253.18 687.632 1253.18 684.56V665.168C1255.04 663.76 1259.01 660.176 1262.72 660.176C1269.06 660.176 1271.42 665.168 1271.42 672.144V684.56C1271.42 687.632 1268.74 688.976 1265.86 689.104V690H1281.15V689.104C1277.63 688.976 1275.71 687.632 1275.71 684.56ZM1310.14 686.928C1309.05 686.16 1308.73 684.752 1308.73 682.896V667.92C1308.73 664.272 1307.58 661.392 1305.66 659.536C1304.06 658 1301.82 657.168 1298.94 657.168C1294.26 657.168 1289.59 658.512 1286.39 661.072L1285.56 669.2H1286.46C1288.12 662.8 1292.28 659.408 1295.86 659.28C1298.42 659.216 1300.34 659.984 1301.69 661.392C1303.35 663.056 1304.12 665.68 1304.25 669.136V672.208C1301.05 672.848 1298.36 673.232 1295.86 673.808C1288.7 675.408 1284.22 677.904 1284.22 683.856C1284.22 688.72 1288.25 690.832 1292.98 690.832C1296.5 690.832 1297.98 690 1300.47 688.4L1304.31 684.88V690.832L1314.87 688.08V687.376C1312.5 687.76 1311.03 687.632 1310.14 686.928ZM1294.78 687.568C1292.34 687.568 1288.38 686.672 1288.38 682.896C1288.38 679.376 1290.42 677.392 1294.84 675.856C1297.21 675.024 1300.28 674.32 1304.25 673.424L1304.31 683.344C1300.22 685.84 1297.59 687.568 1294.78 687.568ZM1336.55 684.752C1334.25 686.672 1332.71 687.824 1329.9 687.824C1328.55 687.824 1327.4 687.44 1326.57 686.736C1325.55 685.84 1324.91 684.56 1324.91 683.024V659.472L1334.63 659.536V658H1324.91V650.96H1323.95C1324.01 655.056 1322.03 658 1316.46 658V659.472H1320.68L1320.62 684.56C1320.62 686.352 1321.45 687.952 1322.79 689.04C1324.2 690.192 1326.19 690.832 1328.55 690.832C1331.95 690.832 1334.89 688.016 1337.32 685.584L1336.55 684.752ZM1347.57 648.464C1348.46 648.464 1349.3 648.08 1349.94 647.44C1350.51 646.864 1350.83 646.032 1350.83 645.136C1350.83 644.24 1350.51 643.472 1349.87 642.832C1349.3 642.256 1348.46 641.872 1347.57 641.872C1346.67 641.872 1345.84 642.192 1345.2 642.832C1344.62 643.408 1344.24 644.24 1344.24 645.136C1344.24 645.904 1344.43 646.544 1344.88 647.12C1345.52 647.952 1346.48 648.464 1347.57 648.464ZM1349.36 685.52V657.936L1338.61 661.84V662.736C1340.91 662.096 1345.07 659.472 1345.07 665.616V685.456C1344.94 687.248 1342.26 688.976 1339.5 689.104V690H1354.8V689.104C1351.47 688.976 1349.49 687.248 1349.36 685.52ZM1373.96 690.96C1368.64 691.024 1364.74 689.168 1361.86 686.096C1359.3 683.28 1357.83 679.248 1357.76 674.448C1357.7 669.328 1359.3 665.04 1362.44 661.968C1365.12 659.28 1368.52 657.232 1373.32 657.168C1377.73 657.104 1381.38 658.832 1384.07 661.008C1387.72 663.888 1389.7 668.496 1389.83 674C1389.96 678.736 1388.48 682.832 1385.92 685.776C1383.24 688.848 1379.2 690.896 1373.96 690.96ZM1372.68 658.896C1368.96 658.96 1366.4 660.56 1364.74 662.928C1363.01 665.36 1362.31 668.752 1362.31 672.4C1362.31 676.752 1363.72 680.848 1365.89 683.856C1368.32 687.248 1371.78 689.36 1375.49 689.36C1378.69 689.36 1381.25 687.76 1382.98 685.072C1384.52 682.704 1385.28 679.504 1385.22 675.92C1385.16 671.376 1383.62 667.088 1381.38 664.016C1379.08 660.816 1375.94 658.832 1372.68 658.896ZM1426.09 684.56V667.664C1426.09 664.4 1424.93 661.648 1422.95 659.728C1421.29 658.128 1418.85 657.168 1415.85 657.168C1412.65 657.168 1406.89 661.328 1403.56 663.568V657.104L1392.81 661.008V661.904C1395.11 661.264 1399.27 658.64 1399.27 664.784V684.56C1399.27 687.632 1396.58 688.976 1393.7 689.104V690H1409V689.104C1405.48 688.976 1403.56 687.632 1403.56 684.56V665.168C1405.41 663.76 1409.38 660.176 1413.09 660.176C1419.43 660.176 1421.8 665.168 1421.8 672.144V684.56C1421.8 687.632 1419.11 688.976 1416.23 689.104V690H1431.53V689.104C1428.01 688.976 1426.09 687.632 1426.09 684.56ZM1460.51 686.928C1459.42 686.16 1459.1 684.752 1459.1 682.896V667.92C1459.1 664.272 1457.95 661.392 1456.03 659.536C1454.43 658 1452.19 657.168 1449.31 657.168C1444.64 657.168 1439.97 658.512 1436.77 661.072L1435.94 669.2H1436.83C1438.5 662.8 1442.66 659.408 1446.24 659.28C1448.8 659.216 1450.72 659.984 1452.06 661.392C1453.73 663.056 1454.5 665.68 1454.62 669.136V672.208C1451.42 672.848 1448.74 673.232 1446.24 673.808C1439.07 675.408 1434.59 677.904 1434.59 683.856C1434.59 688.72 1438.62 690.832 1443.36 690.832C1446.88 690.832 1448.35 690 1450.85 688.4L1454.69 684.88V690.832L1465.25 688.08V687.376C1462.88 687.76 1461.41 687.632 1460.51 686.928ZM1445.15 687.568C1442.72 687.568 1438.75 686.672 1438.75 682.896C1438.75 679.376 1440.8 677.392 1445.22 675.856C1447.58 675.024 1450.66 674.32 1454.62 673.424L1454.69 683.344C1450.59 685.84 1447.97 687.568 1445.15 687.568ZM1475.92 684.88L1475.99 650.064V639.376L1465.23 643.28V644.176C1467.35 643.6 1471.12 641.296 1471.63 645.84V684.56C1471.63 687.632 1468.95 688.976 1466.07 689.104V690H1481.36V689.104C1477.97 688.976 1476.05 687.696 1475.92 684.88ZM1492.13 648.464C1493.03 648.464 1493.86 648.08 1494.5 647.44C1495.08 646.864 1495.4 646.032 1495.4 645.136C1495.4 644.24 1495.08 643.472 1494.44 642.832C1493.86 642.256 1493.03 641.872 1492.13 641.872C1491.24 641.872 1490.4 642.192 1489.76 642.832C1489.19 643.408 1488.8 644.24 1488.8 645.136C1488.8 645.904 1489 646.544 1489.44 647.12C1490.08 647.952 1491.04 648.464 1492.13 648.464ZM1493.92 685.52V657.936L1483.17 661.84V662.736C1485.48 662.096 1489.64 659.472 1489.64 665.616V685.456C1489.51 687.248 1486.82 688.976 1484.07 689.104V690H1499.36V689.104C1496.04 688.976 1494.05 687.248 1493.92 685.52ZM1522.74 684.752C1520.44 686.672 1518.9 687.824 1516.09 687.824C1514.74 687.824 1513.59 687.44 1512.76 686.736C1511.73 685.84 1511.09 684.56 1511.09 683.024V659.472L1520.82 659.536V658H1511.09V650.96H1510.13C1510.2 655.056 1508.21 658 1502.65 658V659.472H1506.87L1506.81 684.56C1506.81 686.352 1507.64 687.952 1508.98 689.04C1510.39 690.192 1512.37 690.832 1514.74 690.832C1518.13 690.832 1521.08 688.016 1523.51 685.584L1522.74 684.752ZM1533.76 648.464C1534.65 648.464 1535.48 648.08 1536.12 647.44C1536.7 646.864 1537.02 646.032 1537.02 645.136C1537.02 644.24 1536.7 643.472 1536.06 642.832C1535.48 642.256 1534.65 641.872 1533.76 641.872C1532.86 641.872 1532.03 642.192 1531.39 642.832C1530.81 643.408 1530.43 644.24 1530.43 645.136C1530.43 645.904 1530.62 646.544 1531.07 647.12C1531.71 647.952 1532.67 648.464 1533.76 648.464ZM1535.55 685.52V657.936L1524.8 661.84V662.736C1527.1 662.096 1531.26 659.472 1531.26 665.616V685.456C1531.13 687.248 1528.44 688.976 1525.69 689.104V690H1540.99V689.104C1537.66 688.976 1535.68 687.248 1535.55 685.52ZM1560.4 687.44C1556.62 687.44 1553.17 685.648 1550.99 682.64C1549.33 680.4 1548.3 677.456 1548.3 674.064C1548.3 673.36 1548.3 672.656 1548.37 671.952L1573.01 672.592C1573.01 668.944 1571.86 665.168 1569.55 662.224C1567.12 659.216 1563.47 657.168 1558.67 657.168C1555.6 657.168 1552.91 658.128 1550.74 659.728C1548.5 661.328 1546.77 663.632 1545.62 666.384C1544.53 668.88 1543.95 671.76 1543.95 674.704C1543.95 679.504 1545.36 683.216 1547.66 685.904C1550.48 689.168 1554.7 690.832 1559.18 690.832C1565.14 690.832 1569.42 688.464 1572.5 684.624L1571.79 684.112C1567.89 686.608 1565.01 687.44 1560.4 687.44ZM1550.99 662.608C1552.53 660.24 1554.83 658.768 1557.84 658.768C1560.72 658.768 1563.15 660.048 1565.01 661.968C1567.18 664.144 1568.46 667.216 1568.46 669.712L1548.5 670.288C1548.88 667.28 1549.71 664.592 1550.99 662.608ZM1600 659.92C1596.55 658.192 1594.18 657.168 1589.51 657.168C1586.43 657.168 1583.81 657.808 1581.51 659.216C1579.33 660.56 1577.92 662.608 1577.92 665.488C1577.92 670.16 1582.34 672.144 1589.7 675.664C1595.07 678.224 1597.38 680.336 1597.38 683.28C1597.38 685.136 1596.61 686.736 1595.2 687.76C1594.05 688.656 1592.51 689.168 1590.59 689.168C1587.2 689.168 1584.39 687.888 1582.27 685.712C1580.35 683.664 1579.01 680.72 1578.56 677.264H1577.67L1577.92 686.992C1580.42 688.464 1585.15 691.088 1589.44 691.088C1592.19 691.088 1595.07 690.256 1597.31 688.848C1599.81 687.248 1601.6 684.88 1601.6 682C1601.6 679.76 1600.83 678.096 1599.04 676.56C1597.63 675.28 1595.59 674.128 1592.9 672.72C1586.05 669.2 1582.21 668.88 1582.21 664.336C1582.21 662.288 1583.17 660.624 1584.64 659.6C1585.79 658.832 1587.2 658.448 1588.74 658.448C1592.26 658.448 1597.19 660.56 1599.75 669.072H1600.64L1600 659.92Z" fill="black"/>
<path d="M778.972 492.304L763.548 456.272C762.908 454.032 765.468 454.288 769.948 454.096V453.2H750.492V454.096C755.164 454.288 757.532 453.968 756.828 456.464L744.156 491.024C742.812 494.288 741.084 496.976 736.924 497.104V498H751.836V497.104C747.228 496.976 745.436 495.312 746.652 491.536L750.748 480.08H768.604L773.276 491.024C775.004 495.12 773.212 496.976 768.412 497.104V498H785.756V497.104C782.172 496.976 780.316 494.992 778.972 492.304ZM751.452 478.16L758.876 457.488L767.772 478.16H751.452ZM809.252 467.92C805.796 466.192 803.428 465.168 798.756 465.168C795.684 465.168 793.06 465.808 790.756 467.216C788.58 468.56 787.172 470.608 787.172 473.488C787.172 478.16 791.588 480.144 798.948 483.664C804.324 486.224 806.628 488.336 806.628 491.28C806.628 493.136 805.86 494.736 804.452 495.76C803.3 496.656 801.764 497.168 799.844 497.168C796.452 497.168 793.636 495.888 791.524 493.712C789.604 491.664 788.26 488.72 787.812 485.264H786.916L787.172 494.992C789.668 496.464 794.404 499.088 798.692 499.088C801.444 499.088 804.324 498.256 806.564 496.848C809.06 495.248 810.852 492.88 810.852 490C810.852 487.76 810.084 486.096 808.292 484.56C806.884 483.28 804.836 482.128 802.148 480.72C795.3 477.2 791.46 476.88 791.46 472.336C791.46 470.288 792.42 468.624 793.892 467.6C795.044 466.832 796.452 466.448 797.988 466.448C801.508 466.448 806.436 468.56 808.996 477.072H809.892L809.252 467.92ZM839.314 467.92C835.858 466.192 833.49 465.168 828.818 465.168C825.746 465.168 823.122 465.808 820.818 467.216C818.642 468.56 817.234 470.608 817.234 473.488C817.234 478.16 821.65 480.144 829.01 483.664C834.386 486.224 836.69 488.336 836.69 491.28C836.69 493.136 835.922 494.736 834.514 495.76C833.362 496.656 831.826 497.168 829.906 497.168C826.514 497.168 823.698 495.888 821.586 493.712C819.666 491.664 818.322 488.72 817.874 485.264H816.978L817.234 494.992C819.73 496.464 824.466 499.088 828.754 499.088C831.506 499.088 834.386 498.256 836.626 496.848C839.122 495.248 840.914 492.88 840.914 490C840.914 487.76 840.146 486.096 838.354 484.56C836.946 483.28 834.898 482.128 832.21 480.72C825.362 477.2 821.522 476.88 821.522 472.336C821.522 470.288 822.482 468.624 823.954 467.6C825.106 466.832 826.514 466.448 828.05 466.448C831.57 466.448 836.498 468.56 839.058 477.072H839.954L839.314 467.92ZM862.337 495.44C858.561 495.44 855.105 493.648 852.929 490.64C851.265 488.4 850.241 485.456 850.241 482.064C850.241 481.36 850.241 480.656 850.305 479.952L874.945 480.592C874.945 476.944 873.793 473.168 871.489 470.224C869.057 467.216 865.409 465.168 860.609 465.168C857.537 465.168 854.849 466.128 852.673 467.728C850.433 469.328 848.705 471.632 847.553 474.384C846.465 476.88 845.889 479.76 845.889 482.704C845.889 487.504 847.297 491.216 849.601 493.904C852.417 497.168 856.641 498.832 861.121 498.832C867.073 498.832 871.361 496.464 874.433 492.624L873.729 492.112C869.825 494.608 866.945 495.44 862.337 495.44ZM852.929 470.608C854.465 468.24 856.769 466.768 859.777 466.768C862.657 466.768 865.089 468.048 866.945 469.968C869.121 472.144 870.401 475.216 870.401 477.712L850.433 478.288C850.817 475.28 851.649 472.592 852.929 470.608ZM903.155 466.576C902.195 465.744 900.915 465.168 899.507 465.168C895.091 465.168 890.675 469.648 887.923 474.192V465.104L877.171 469.008V469.904C878.707 469.456 881.139 468.112 882.547 469.2C883.187 469.712 883.635 470.8 883.635 472.784V472.976L883.699 493.008C883.635 494.352 883.059 495.248 882.163 495.952C881.139 496.784 879.667 497.168 878.131 497.232V498.128H897.267V497.232C895.091 497.168 892.659 496.784 890.867 495.952C889.139 495.248 887.987 494.16 887.987 492.688L887.923 476.304C890.035 473.232 892.915 467.92 897.779 467.92C899.187 467.92 900.403 468.624 901.363 469.776C902.835 471.504 903.795 474.448 904.051 477.712H904.947L905.587 469.968C905.203 468.944 904.371 467.6 903.155 466.576ZM928.992 492.752C926.688 494.672 925.152 495.824 922.336 495.824C920.992 495.824 919.84 495.44 919.008 494.736C917.984 493.84 917.344 492.56 917.344 491.024V467.472L927.072 467.536V466H917.344V458.96H916.384C916.448 463.056 914.464 466 908.896 466V467.472H913.12L913.056 492.56C913.056 494.352 913.888 495.952 915.232 497.04C916.64 498.192 918.624 498.832 920.992 498.832C924.384 498.832 927.328 496.016 929.76 493.584L928.992 492.752ZM940.006 456.464C940.902 456.464 941.734 456.08 942.374 455.44C942.95 454.864 943.27 454.032 943.27 453.136C943.27 452.24 942.95 451.472 942.31 450.832C941.734 450.256 940.902 449.872 940.006 449.872C939.11 449.872 938.278 450.192 937.638 450.832C937.062 451.408 936.678 452.24 936.678 453.136C936.678 453.904 936.87 454.544 937.318 455.12C937.958 455.952 938.918 456.464 940.006 456.464ZM941.798 493.52V465.936L931.046 469.84V470.736C933.35 470.096 937.51 467.472 937.51 473.616V493.456C937.382 495.248 934.694 496.976 931.942 497.104V498H947.238V497.104C943.91 496.976 941.926 495.248 941.798 493.52ZM966.393 498.96C961.081 499.024 957.177 497.168 954.297 494.096C951.737 491.28 950.265 487.248 950.201 482.448C950.137 477.328 951.737 473.04 954.873 469.968C957.561 467.28 960.953 465.232 965.753 465.168C970.169 465.104 973.817 466.832 976.505 469.008C980.153 471.888 982.137 476.496 982.265 482C982.393 486.736 980.921 490.832 978.361 493.776C975.673 496.848 971.641 498.896 966.393 498.96ZM965.113 466.896C961.401 466.96 958.841 468.56 957.177 470.928C955.449 473.36 954.745 476.752 954.745 480.4C954.745 484.752 956.153 488.848 958.329 491.856C960.761 495.248 964.217 497.36 967.929 497.36C971.129 497.36 973.689 495.76 975.417 493.072C976.953 490.704 977.721 487.504 977.657 483.92C977.593 479.376 976.057 475.088 973.817 472.016C971.513 468.816 968.377 466.832 965.113 466.896ZM1018.52 492.56V475.664C1018.52 472.4 1017.37 469.648 1015.39 467.728C1013.72 466.128 1011.29 465.168 1008.28 465.168C1005.08 465.168 999.324 469.328 995.996 471.568V465.104L985.244 469.008V469.904C987.548 469.264 991.708 466.64 991.708 472.784V492.56C991.708 495.632 989.02 496.976 986.14 497.104V498H1001.44V497.104C997.916 496.976 995.996 495.632 995.996 492.56V473.168C997.852 471.76 1001.82 468.176 1005.53 468.176C1011.87 468.176 1014.24 473.168 1014.24 480.144V492.56C1014.24 495.632 1011.55 496.976 1008.67 497.104V498H1023.96V497.104C1020.44 496.976 1018.52 495.632 1018.52 492.56ZM1058.58 498.96C1053.27 499.024 1049.36 497.168 1046.48 494.096C1043.92 491.28 1042.45 487.248 1042.39 482.448C1042.32 477.328 1043.92 473.04 1047.06 469.968C1049.75 467.28 1053.14 465.232 1057.94 465.168C1062.36 465.104 1066 466.832 1068.69 469.008C1072.34 471.888 1074.32 476.496 1074.45 482C1074.58 486.736 1073.11 490.832 1070.55 493.776C1067.86 496.848 1063.83 498.896 1058.58 498.96ZM1057.3 466.896C1053.59 466.96 1051.03 468.56 1049.36 470.928C1047.64 473.36 1046.93 476.752 1046.93 480.4C1046.93 484.752 1048.34 488.848 1050.52 491.856C1052.95 495.248 1056.4 497.36 1060.12 497.36C1063.32 497.36 1065.88 495.76 1067.6 493.072C1069.14 490.704 1069.91 487.504 1069.84 483.92C1069.78 479.376 1068.24 475.088 1066 472.016C1063.7 468.816 1060.56 466.832 1057.3 466.896ZM1095.48 448.08C1092.47 448.08 1090.04 449.04 1088.18 450.64C1085.69 452.816 1084.34 456.272 1084.34 460.048V466H1081.08L1079.42 467.28H1084.34V492.688C1084.34 495.76 1081.66 497.104 1078.78 497.232V498.128H1097.91V497.232C1091.83 497.104 1088.63 495.76 1088.63 492.688V467.28H1095.93V466.064H1088.63V456.784C1088.63 452.304 1090.62 449.936 1094.46 449.936C1098.94 449.936 1102.65 454.736 1104.57 462.8H1105.34V452.752C1101.56 449.232 1099 448.08 1095.48 448.08ZM774.971 531.92C771.515 530.192 769.147 529.168 764.475 529.168C761.403 529.168 758.779 529.808 756.475 531.216C754.299 532.56 752.891 534.608 752.891 537.488C752.891 542.16 757.307 544.144 764.667 547.664C770.043 550.224 772.347 552.336 772.347 555.28C772.347 557.136 771.579 558.736 770.171 559.76C769.019 560.656 767.483 561.168 765.562 561.168C762.171 561.168 759.355 559.888 757.243 557.712C755.323 555.664 753.979 552.72 753.531 549.264H752.635L752.891 558.992C755.387 560.464 760.123 563.088 764.411 563.088C767.163 563.088 770.043 562.256 772.283 560.848C774.779 559.248 776.571 556.88 776.571 554C776.571 551.76 775.803 550.096 774.011 548.56C772.603 547.28 770.555 546.128 767.867 544.72C761.019 541.2 757.179 540.88 757.179 536.336C757.179 534.288 758.139 532.624 759.611 531.6C760.763 530.832 762.171 530.448 763.707 530.448C767.227 530.448 772.155 532.56 774.715 541.072H775.611L774.971 531.92ZM797.737 562.96C792.425 563.024 788.521 561.168 785.641 558.096C783.081 555.28 781.609 551.248 781.545 546.448C781.481 541.328 783.081 537.04 786.217 533.968C788.905 531.28 792.297 529.232 797.097 529.168C801.513 529.104 805.161 530.832 807.849 533.008C811.497 535.888 813.481 540.496 813.609 546C813.737 550.736 812.265 554.832 809.705 557.776C807.017 560.848 802.985 562.896 797.737 562.96ZM796.457 530.896C792.745 530.96 790.185 532.56 788.521 534.928C786.793 537.36 786.089 540.752 786.089 544.4C786.089 548.752 787.497 552.848 789.673 555.856C792.105 559.248 795.561 561.36 799.273 561.36C802.473 561.36 805.033 559.76 806.761 557.072C808.297 554.704 809.065 551.504 809.001 547.92C808.937 543.376 807.401 539.088 805.161 536.016C802.857 532.816 799.721 530.832 796.457 530.896ZM835.66 530V530.896C838.668 530.768 841.932 531.92 840.844 535.76L832.652 556.944L823.564 535.568C822.476 532.368 822.54 530.96 826.956 530.896V530H812.94V530.896C817.42 531.024 817.868 532.88 819.212 535.888L830.284 562H831.884L842.572 535.632C844.364 531.856 846.092 530.96 848.524 530.896V530H835.66ZM864.431 559.44C860.655 559.44 857.199 557.648 855.023 554.64C853.359 552.4 852.335 549.456 852.335 546.064C852.335 545.36 852.335 544.656 852.399 543.952L877.039 544.592C877.039 540.944 875.887 537.168 873.583 534.224C871.151 531.216 867.503 529.168 862.703 529.168C859.631 529.168 856.943 530.128 854.767 531.728C852.527 533.328 850.799 535.632 849.647 538.384C848.559 540.88 847.983 543.76 847.983 546.704C847.983 551.504 849.391 555.216 851.695 557.904C854.51 561.168 858.735 562.832 863.215 562.832C869.167 562.832 873.455 560.464 876.527 556.624L875.823 556.112C871.919 558.608 869.039 559.44 864.431 559.44ZM855.023 534.608C856.559 532.24 858.863 530.768 861.871 530.768C864.751 530.768 867.183 532.048 869.039 533.968C871.215 536.144 872.495 539.216 872.495 541.712L852.527 542.288C852.911 539.28 853.743 536.592 855.023 534.608ZM905.249 530.576C904.289 529.744 903.009 529.168 901.601 529.168C897.185 529.168 892.769 533.648 890.017 538.192V529.104L879.265 533.008V533.904C880.801 533.456 883.233 532.112 884.641 533.2C885.281 533.712 885.729 534.8 885.729 536.784V536.976L885.793 557.008C885.729 558.352 885.153 559.248 884.257 559.952C883.233 560.784 881.761 561.168 880.225 561.232V562.128H899.361V561.232C897.185 561.168 894.753 560.784 892.961 559.952C891.233 559.248 890.081 558.16 890.081 556.688L890.017 540.304C892.129 537.232 895.009 531.92 899.873 531.92C901.281 531.92 902.497 532.624 903.457 533.776C904.929 535.504 905.889 538.448 906.145 541.712H907.041L907.681 533.968C907.297 532.944 906.465 531.6 905.249 530.576ZM927.118 559.44C923.342 559.44 919.886 557.648 917.71 554.64C916.046 552.4 915.022 549.456 915.022 546.064C915.022 545.36 915.022 544.656 915.086 543.952L939.726 544.592C939.726 540.944 938.574 537.168 936.27 534.224C933.838 531.216 930.19 529.168 925.39 529.168C922.318 529.168 919.63 530.128 917.454 531.728C915.214 533.328 913.486 535.632 912.334 538.384C911.246 540.88 910.67 543.76 910.67 546.704C910.67 551.504 912.078 555.216 914.382 557.904C917.198 561.168 921.422 562.832 925.902 562.832C931.854 562.832 936.142 560.464 939.214 556.624L938.51 556.112C934.606 558.608 931.726 559.44 927.118 559.44ZM917.71 534.608C919.246 532.24 921.55 530.768 924.558 530.768C927.438 530.768 929.87 532.048 931.726 533.968C933.902 536.144 935.182 539.216 935.182 541.712L915.214 542.288C915.598 539.28 916.43 536.592 917.71 534.608ZM950.913 520.464C951.809 520.464 952.641 520.08 953.281 519.44C953.857 518.864 954.177 518.032 954.177 517.136C954.177 516.24 953.857 515.472 953.217 514.832C952.641 514.256 951.809 513.872 950.913 513.872C950.017 513.872 949.185 514.192 948.545 514.832C947.969 515.408 947.585 516.24 947.585 517.136C947.585 517.904 947.777 518.544 948.225 519.12C948.865 519.952 949.825 520.464 950.913 520.464ZM952.705 557.52V529.936L941.953 533.84V534.736C944.257 534.096 948.417 531.472 948.417 537.616V557.456C948.289 559.248 945.601 560.976 942.849 561.104V562H958.145V561.104C954.817 560.976 952.833 559.248 952.705 557.52ZM991.06 559.44C988.82 557.648 985.044 556.624 979.476 556.112C975.06 555.664 971.732 555.024 970.196 554.192C969.492 553.872 969.108 553.488 969.108 553.04C969.108 552.208 970.516 551.184 972.436 550.032C973.012 550.096 973.652 550.16 974.228 550.16C979.54 550.16 983.764 548.56 986.132 545.808C987.54 544.208 988.308 542.16 988.308 539.856C988.308 537.424 987.348 535.12 985.684 533.328C989.14 530.896 991.444 531.344 992.34 539.024H992.852C992.852 531.664 993.428 528.464 991.7 528.464C990.612 528.464 987.028 531.024 984.98 532.56C984.34 531.984 983.572 531.408 982.74 530.96C980.82 529.936 978.516 529.296 975.892 529.296C971.54 529.296 968.02 530.704 965.78 533.136C964.116 534.928 963.22 537.232 963.22 539.984C963.22 542.736 964.244 545.104 965.908 546.896C967.124 548.112 968.66 549.072 970.452 549.584C968.66 550.672 967.38 551.504 966.612 552.208C965.652 553.104 965.332 553.808 965.332 554.768C965.332 555.92 966.164 556.752 967.956 557.52C968.404 557.712 968.916 557.84 969.492 558.032C966.868 560.784 962.58 564.56 962.58 568.336C962.58 570.192 963.284 571.728 964.5 572.88C966.42 574.672 969.684 575.632 973.652 575.632C978.58 575.632 983.572 574.48 987.348 572.624C991.188 570.768 993.748 568.208 993.748 565.392C993.748 562.832 992.916 560.848 991.06 559.44ZM969.3 533.456C970.196 531.856 971.604 530.64 973.524 530.384C976.468 530 979.028 530.768 980.82 532.624C982.164 534.032 983.124 536.016 983.508 538.576C983.828 541.072 983.444 543.504 982.42 545.36C981.46 547.216 979.796 548.56 977.684 548.88C975.124 549.264 972.948 548.432 971.284 546.96C969.684 545.488 968.595 543.312 968.212 540.88C967.764 538.32 968.148 535.568 969.3 533.456ZM987.668 570.768C985.364 572.624 981.652 573.84 977.364 573.712C973.588 573.584 970.58 572.816 968.66 571.28C967.188 570.128 966.356 568.528 966.356 566.544C966.356 563.728 969.428 560.08 971.092 558.48C973.46 559.056 976.596 559.568 980.564 560.144C987.284 561.168 989.972 563.024 989.972 566.736C989.972 568.208 989.14 569.616 987.668 570.768ZM1030.24 556.56V539.664C1030.24 536.4 1029.09 533.648 1027.11 531.728C1025.44 530.128 1023.01 529.168 1020 529.168C1016.8 529.168 1011.04 533.328 1007.72 535.568V529.104L996.963 533.008V533.904C999.267 533.264 1003.43 530.64 1003.43 536.784V556.56C1003.43 559.632 1000.74 560.976 997.859 561.104V562H1013.16V561.104C1009.64 560.976 1007.72 559.632 1007.72 556.56V537.168C1009.57 535.76 1013.54 532.176 1017.25 532.176C1023.59 532.176 1025.96 537.168 1025.96 544.144V556.56C1025.96 559.632 1023.27 560.976 1020.39 561.104V562H1035.68V561.104C1032.16 560.976 1030.24 559.632 1030.24 556.56ZM1058.52 556.752C1056.22 558.672 1054.68 559.824 1051.87 559.824C1050.52 559.824 1049.37 559.44 1048.54 558.736C1047.52 557.84 1046.88 556.56 1046.88 555.024V531.472L1056.6 531.536V530H1046.88V522.96H1045.92C1045.98 527.056 1044 530 1038.43 530V531.472H1042.65L1042.59 556.56C1042.59 558.352 1043.42 559.952 1044.76 561.04C1046.17 562.192 1048.16 562.832 1050.52 562.832C1053.92 562.832 1056.86 560.016 1059.29 557.584L1058.52 556.752ZM1080.03 530V530.896C1082.98 530.768 1086.31 531.92 1085.22 535.696L1076.96 557.008L1068.07 535.888C1066.85 532.496 1066.72 530.96 1071.33 530.896V530H1057.31V530.896C1061.67 531.024 1062.24 532.752 1063.59 535.696L1074.98 562C1072.67 567.056 1069.67 572.048 1067.75 572.048C1065.25 572.048 1063.84 571.28 1062.88 564.88H1062.24C1062.24 572.24 1061.79 576.08 1064.74 576.08C1067.43 576.08 1072.8 570.256 1076.26 562C1076.39 561.744 1076.51 561.424 1076.58 561.168L1086.95 535.632C1088.74 531.856 1090.47 530.96 1092.9 530.896V530H1080.03ZM777.293 622.928C776.205 622.16 775.885 620.752 775.885 618.896V603.92C775.885 600.272 774.733 597.392 772.813 595.536C771.213 594 768.973 593.168 766.093 593.168C761.421 593.168 756.749 594.512 753.549 597.072L752.717 605.2H753.613C755.277 598.8 759.437 595.408 763.021 595.28C765.581 595.216 767.501 595.984 768.845 597.392C770.509 599.056 771.277 601.68 771.405 605.136V608.208C768.205 608.848 765.517 609.232 763.021 609.808C755.853 611.408 751.373 613.904 751.373 619.856C751.373 624.72 755.405 626.832 760.141 626.832C763.661 626.832 765.133 626 767.628 624.4L771.469 620.88V626.832L782.029 624.08V623.376C779.661 623.76 778.189 623.632 777.293 622.928ZM761.933 623.568C759.501 623.568 755.533 622.672 755.533 618.896C755.533 615.376 757.581 613.392 761.997 611.856C764.365 611.024 767.437 610.32 771.405 609.424L771.469 619.344C767.373 621.84 764.749 623.568 761.933 623.568ZM815.743 620.56V603.664C815.743 600.4 814.591 597.648 812.607 595.728C810.943 594.128 808.511 593.168 805.503 593.168C802.303 593.168 796.543 597.328 793.215 599.568V593.104L782.463 597.008V597.904C784.767 597.264 788.927 594.64 788.927 600.784V620.56C788.927 623.632 786.239 624.976 783.359 625.104V626H798.655V625.104C795.135 624.976 793.215 623.632 793.215 620.56V601.168C795.071 599.76 799.039 596.176 802.751 596.176C809.087 596.176 811.455 601.168 811.455 608.144V620.56C811.455 623.632 808.767 624.976 805.887 625.104V626H821.183V625.104C817.663 624.976 815.743 623.632 815.743 620.56ZM852.792 618.256L852.664 583.312V576.08L841.912 579.984V580.88C844.216 580.24 848.312 577.68 848.376 583.632V595.088C846.52 594.448 844.536 594 841.784 594C838.264 594 835.128 594.768 832.504 596.176C826.552 599.376 823.608 605.584 823.608 612.688C823.608 616.464 824.568 619.536 826.296 621.776C829.304 625.488 833.976 626.832 838.135 626.832C843 626.832 847.032 622.672 848.312 621.456V626.832L858.872 624.016V623.312C853.752 624.208 852.792 621.712 852.792 618.256ZM840.056 623.568C830.84 623.568 827.192 617.168 827.192 608.272C827.192 601.936 832.056 596.24 839.544 596.24C843.768 596.24 846.264 597.776 848.312 599.632L848.376 599.568L848.312 619.92C845.88 623.312 841.912 623.568 840.056 623.568ZM903.863 597.776L904.247 606.288H903.351C902.007 602.064 899.895 598.416 896.759 596.56C894.967 595.472 892.919 594.896 890.551 594.896C888.119 594.896 886.135 595.92 884.663 597.648C882.295 600.464 881.207 605.072 881.207 610.064C881.207 613.136 882.103 616.016 883.639 618.32C885.815 621.52 889.271 623.568 893.431 623.568C898.039 623.568 900.215 622.224 904.119 619.728L904.823 620.24C902.839 622.288 901.111 623.888 899.319 624.976C897.271 626.192 895.095 626.832 892.215 626.832C887.927 626.832 884.279 625.424 881.655 622.928C878.711 620.112 876.983 615.888 876.983 610.704C876.983 605.392 878.775 600.464 882.039 597.136C884.535 594.704 887.799 593.168 891.703 593.168C894.327 593.168 896.439 593.552 898.423 594.384C900.279 595.152 901.943 596.24 903.863 597.776ZM939.078 619.216V619.024L939.014 597.2V593.168L928.262 597.072V597.968C930.566 597.328 934.726 594.704 934.726 600.848V601.424L934.79 618.832C932.806 620.88 930.118 623.824 926.406 623.824C919.942 623.824 917.702 618.704 917.702 611.856V593.168L906.95 597.072V597.968C909.254 597.328 913.414 594.704 913.414 600.848V616.336C913.414 619.664 914.502 622.48 916.614 624.4C918.342 625.936 920.71 626.832 923.654 626.832C926.854 626.832 931.462 623.632 934.79 620.432V626.896L945.542 622.992V622.096C943.238 622.736 939.078 625.36 939.078 619.216ZM957.953 620.88L958.017 586.064V575.376L947.265 579.28V580.176C949.377 579.6 953.153 577.296 953.665 581.84V620.56C953.665 623.632 950.977 624.976 948.097 625.104V626H963.393V625.104C960.001 624.976 958.081 623.696 957.953 620.88ZM986.899 620.752C984.595 622.672 983.059 623.824 980.243 623.824C978.899 623.824 977.747 623.44 976.915 622.736C975.891 621.84 975.251 620.56 975.251 619.024V595.472L984.979 595.536V594H975.251V586.96H974.291C974.355 591.056 972.371 594 966.803 594V595.472H971.027L970.963 620.56C970.963 622.352 971.795 623.952 973.139 625.04C974.547 626.192 976.531 626.832 978.899 626.832C982.291 626.832 985.235 624.016 987.667 621.584L986.899 620.752ZM1020.95 619.216V619.024L1020.89 597.2V593.168L1010.14 597.072V597.968C1012.44 597.328 1016.6 594.704 1016.6 600.848V601.424L1016.66 618.832C1014.68 620.88 1011.99 623.824 1008.28 623.824C1001.82 623.824 999.577 618.704 999.577 611.856V593.168L988.825 597.072V597.968C991.129 597.328 995.289 594.704 995.289 600.848V616.336C995.289 619.664 996.377 622.48 998.489 624.4C1000.22 625.936 1002.58 626.832 1005.53 626.832C1008.73 626.832 1013.34 623.632 1016.66 620.432V626.896L1027.42 622.992V622.096C1025.11 622.736 1020.95 625.36 1020.95 619.216ZM1055.12 594.576C1054.16 593.744 1052.88 593.168 1051.48 593.168C1047.06 593.168 1042.64 597.648 1039.89 602.192V593.104L1029.14 597.008V597.904C1030.68 597.456 1033.11 596.112 1034.52 597.2C1035.16 597.712 1035.6 598.8 1035.6 600.784V600.976L1035.67 621.008C1035.6 622.352 1035.03 623.248 1034.13 623.952C1033.11 624.784 1031.64 625.168 1030.1 625.232V626.128H1049.24V625.232C1047.06 625.168 1044.63 624.784 1042.84 623.952C1041.11 623.248 1039.96 622.16 1039.96 620.688L1039.89 604.304C1042 601.232 1044.88 595.92 1049.75 595.92C1051.16 595.92 1052.37 596.624 1053.33 597.776C1054.8 599.504 1055.76 602.448 1056.02 605.712H1056.92L1057.56 597.968C1057.17 596.944 1056.34 595.6 1055.12 594.576ZM1076.99 623.44C1073.22 623.44 1069.76 621.648 1067.59 618.64C1065.92 616.4 1064.9 613.456 1064.9 610.064C1064.9 609.36 1064.9 608.656 1064.96 607.952L1089.6 608.592C1089.6 604.944 1088.45 601.168 1086.15 598.224C1083.71 595.216 1080.07 593.168 1075.27 593.168C1072.19 593.168 1069.51 594.128 1067.33 595.728C1065.09 597.328 1063.36 599.632 1062.21 602.384C1061.12 604.88 1060.55 607.76 1060.55 610.704C1060.55 615.504 1061.95 619.216 1064.26 621.904C1067.07 625.168 1071.3 626.832 1075.78 626.832C1081.73 626.832 1086.02 624.464 1089.09 620.624L1088.39 620.112C1084.48 622.608 1081.6 623.44 1076.99 623.44ZM1067.59 598.608C1069.12 596.24 1071.43 594.768 1074.43 594.768C1077.31 594.768 1079.75 596.048 1081.6 597.968C1083.78 600.144 1085.06 603.216 1085.06 605.712L1065.09 606.288C1065.47 603.28 1066.31 600.592 1067.59 598.608Z" fill="black"/>
<path d="M253.934 392.592L254.51 403.472H253.678C251.374 396.688 248.43 390.16 237.55 390.16C226.862 390.16 223.086 402.64 223.086 411.728C223.086 421.968 230.446 431.888 239.47 431.888C249.262 431.888 251.31 428.752 254.574 419.28H255.662L254.062 430.672C246.702 434.448 243.246 434.768 237.294 434.768C226.862 434.768 217.966 424.848 217.966 414.096C217.966 399.952 225.518 388.368 239.278 388.368C243.822 388.368 249.198 390.16 253.934 392.592ZM286.574 430.928C285.486 430.16 285.166 428.752 285.166 426.896V411.92C285.166 408.272 284.014 405.392 282.094 403.536C280.494 402 278.254 401.168 275.374 401.168C270.702 401.168 266.03 402.512 262.83 405.072L261.998 413.2H262.894C264.558 406.8 268.718 403.408 272.302 403.28C274.862 403.216 276.782 403.984 278.126 405.392C279.79 407.056 280.558 409.68 280.686 413.136V416.208C277.486 416.848 274.798 417.232 272.302 417.808C265.134 419.408 260.654 421.904 260.654 427.856C260.654 432.72 264.686 434.832 269.422 434.832C272.942 434.832 274.414 434 276.91 432.4L280.75 428.88V434.832L291.31 432.08V431.376C288.942 431.76 287.47 431.632 286.574 430.928ZM271.214 431.568C268.782 431.568 264.814 430.672 264.814 426.896C264.814 423.376 266.862 421.392 271.278 419.856C273.646 419.024 276.718 418.32 280.686 417.424L280.75 427.344C276.654 429.84 274.03 431.568 271.214 431.568ZM317.28 402.576C316.32 401.744 315.04 401.168 313.632 401.168C309.216 401.168 304.8 405.648 302.048 410.192V401.104L291.296 405.008V405.904C292.832 405.456 295.264 404.112 296.672 405.2C297.312 405.712 297.76 406.8 297.76 408.784V408.976L297.824 429.008C297.76 430.352 297.184 431.248 296.288 431.952C295.264 432.784 293.792 433.168 292.256 433.232V434.128H311.392V433.232C309.216 433.168 306.784 432.784 304.992 431.952C303.264 431.248 302.112 430.16 302.112 428.688L302.048 412.304C304.16 409.232 307.04 403.92 311.904 403.92C313.312 403.92 314.528 404.624 315.488 405.776C316.96 407.504 317.92 410.448 318.176 413.712H319.072L319.712 405.968C319.328 404.944 318.496 403.6 317.28 402.576ZM340.941 402V402.896C343.949 402.768 347.213 403.92 346.125 407.76L337.933 428.944L328.845 407.568C327.757 404.368 327.821 402.96 332.237 402.896V402H318.221V402.896C322.701 403.024 323.149 404.88 324.493 407.888L335.565 434H337.165L347.853 407.632C349.645 403.856 351.373 402.96 353.805 402.896V402H340.941ZM360.944 392.464C361.84 392.464 362.672 392.08 363.312 391.44C363.888 390.864 364.208 390.032 364.208 389.136C364.208 388.24 363.888 387.472 363.248 386.832C362.672 386.256 361.84 385.872 360.944 385.872C360.048 385.872 359.216 386.192 358.576 386.832C358 387.408 357.616 388.24 357.616 389.136C357.616 389.904 357.808 390.544 358.256 391.12C358.896 391.952 359.856 392.464 360.944 392.464ZM362.736 429.52V401.936L351.984 405.84V406.736C354.288 406.096 358.448 403.472 358.448 409.616V429.456C358.32 431.248 355.632 432.976 352.88 433.104V434H368.176V433.104C364.848 432.976 362.864 431.248 362.736 429.52ZM403.587 428.56V411.664C403.587 408.4 402.435 405.648 400.451 403.728C398.787 402.128 396.355 401.168 393.347 401.168C390.147 401.168 384.387 405.328 381.059 407.568V401.104L370.307 405.008V405.904C372.611 405.264 376.771 402.64 376.771 408.784V428.56C376.771 431.632 374.083 432.976 371.203 433.104V434H386.499V433.104C382.979 432.976 381.059 431.632 381.059 428.56V409.168C382.915 407.76 386.883 404.176 390.595 404.176C396.931 404.176 399.299 409.168 399.299 416.144V428.56C399.299 431.632 396.611 432.976 393.731 433.104V434H409.027V433.104C405.507 432.976 403.587 431.632 403.587 428.56ZM441.403 431.44C439.163 429.648 435.387 428.624 429.819 428.112C425.403 427.664 422.075 427.024 420.539 426.192C419.835 425.872 419.451 425.488 419.451 425.04C419.451 424.208 420.859 423.184 422.779 422.032C423.355 422.096 423.995 422.16 424.571 422.16C429.883 422.16 434.107 420.56 436.475 417.808C437.883 416.208 438.651 414.16 438.651 411.856C438.651 409.424 437.691 407.12 436.027 405.328C439.483 402.896 441.787 403.344 442.683 411.024H443.195C443.195 403.664 443.771 400.464 442.043 400.464C440.955 400.464 437.371 403.024 435.323 404.56C434.683 403.984 433.915 403.408 433.083 402.96C431.163 401.936 428.859 401.296 426.235 401.296C421.883 401.296 418.363 402.704 416.123 405.136C414.459 406.928 413.563 409.232 413.563 411.984C413.563 414.736 414.587 417.104 416.251 418.896C417.467 420.112 419.003 421.072 420.795 421.584C419.003 422.672 417.723 423.504 416.955 424.208C415.995 425.104 415.675 425.808 415.675 426.768C415.675 427.92 416.507 428.752 418.299 429.52C418.747 429.712 419.259 429.84 419.835 430.032C417.211 432.784 412.923 436.56 412.923 440.336C412.923 442.192 413.627 443.728 414.843 444.88C416.763 446.672 420.027 447.632 423.995 447.632C428.923 447.632 433.915 446.48 437.691 444.624C441.531 442.768 444.091 440.208 444.091 437.392C444.091 434.832 443.259 432.848 441.403 431.44ZM419.643 405.456C420.539 403.856 421.947 402.64 423.867 402.384C426.811 402 429.371 402.768 431.163 404.624C432.507 406.032 433.467 408.016 433.851 410.576C434.171 413.072 433.787 415.504 432.763 417.36C431.803 419.216 430.139 420.56 428.027 420.88C425.467 421.264 423.291 420.432 421.627 418.96C420.027 417.488 418.939 415.312 418.555 412.88C418.107 410.32 418.491 407.568 419.643 405.456ZM438.011 442.768C435.707 444.624 431.995 445.84 427.707 445.712C423.931 445.584 420.923 444.816 419.003 443.28C417.531 442.128 416.699 440.528 416.699 438.544C416.699 435.728 419.771 432.08 421.435 430.48C423.803 431.056 426.939 431.568 430.907 432.144C437.627 433.168 440.315 435.024 440.315 438.736C440.315 440.208 439.483 441.616 438.011 442.768ZM480.331 434.96C475.019 435.024 471.115 433.168 468.235 430.096C465.675 427.28 464.203 423.248 464.139 418.448C464.075 413.328 465.675 409.04 468.811 405.968C471.499 403.28 474.891 401.232 479.691 401.168C484.107 401.104 487.755 402.832 490.443 405.008C494.091 407.888 496.075 412.496 496.203 418C496.331 422.736 494.859 426.832 492.299 429.776C489.611 432.848 485.579 434.896 480.331 434.96ZM479.051 402.896C475.339 402.96 472.779 404.56 471.115 406.928C469.387 409.36 468.683 412.752 468.683 416.4C468.683 420.752 470.091 424.848 472.267 427.856C474.699 431.248 478.155 433.36 481.867 433.36C485.067 433.36 487.627 431.76 489.355 429.072C490.891 426.704 491.659 423.504 491.595 419.92C491.531 415.376 489.995 411.088 487.755 408.016C485.451 404.816 482.315 402.832 479.051 402.896ZM530.734 427.216V427.024L530.67 405.2V401.168L519.918 405.072V405.968C522.222 405.328 526.382 402.704 526.382 408.848V409.424L526.446 426.832C524.462 428.88 521.774 431.824 518.062 431.824C511.598 431.824 509.358 426.704 509.358 419.856V401.168L498.606 405.072V405.968C500.91 405.328 505.07 402.704 505.07 408.848V424.336C505.07 427.664 506.158 430.48 508.27 432.4C509.998 433.936 512.366 434.832 515.31 434.832C518.51 434.832 523.118 431.632 526.446 428.432V434.896L537.198 430.992V430.096C534.894 430.736 530.734 433.36 530.734 427.216ZM560.617 428.752C558.313 430.672 556.777 431.824 553.961 431.824C552.617 431.824 551.465 431.44 550.633 430.736C549.609 429.84 548.969 428.56 548.969 427.024V403.472L558.697 403.536V402H548.969V394.96H548.009C548.073 399.056 546.089 402 540.521 402V403.472H544.745L544.681 428.56C544.681 430.352 545.513 431.952 546.857 433.04C548.265 434.192 550.249 434.832 552.617 434.832C556.009 434.832 558.953 432.016 561.385 429.584L560.617 428.752ZM606.511 430.928C605.423 430.16 605.103 428.752 605.103 426.896V411.92C605.103 408.272 603.951 405.392 602.031 403.536C600.431 402 598.191 401.168 595.311 401.168C590.639 401.168 585.967 402.512 582.767 405.072L581.935 413.2H582.831C584.495 406.8 588.655 403.408 592.239 403.28C594.799 403.216 596.719 403.984 598.063 405.392C599.727 407.056 600.495 409.68 600.623 413.136V416.208C597.423 416.848 594.735 417.232 592.239 417.808C585.071 419.408 580.591 421.904 580.591 427.856C580.591 432.72 584.623 434.832 589.359 434.832C592.879 434.832 594.351 434 596.847 432.4L600.687 428.88V434.832L611.247 432.08V431.376C608.879 431.76 607.407 431.632 606.511 430.928ZM591.151 431.568C588.719 431.568 584.751 430.672 584.751 426.896C584.751 423.376 586.799 421.392 591.215 419.856C593.583 419.024 596.655 418.32 600.623 417.424L600.687 427.344C596.591 429.84 593.967 431.568 591.151 431.568ZM251.596 467.92C248.14 466.192 245.772 465.168 241.1 465.168C238.028 465.168 235.404 465.808 233.1 467.216C230.924 468.56 229.516 470.608 229.516 473.488C229.516 478.16 233.932 480.144 241.292 483.664C246.668 486.224 248.972 488.336 248.972 491.28C248.972 493.136 248.204 494.736 246.796 495.76C245.644 496.656 244.108 497.168 242.188 497.168C238.796 497.168 235.98 495.888 233.868 493.712C231.948 491.664 230.604 488.72 230.156 485.264H229.26L229.516 494.992C232.012 496.464 236.748 499.088 241.036 499.088C243.788 499.088 246.668 498.256 248.908 496.848C251.404 495.248 253.196 492.88 253.196 490C253.196 487.76 252.428 486.096 250.636 484.56C249.228 483.28 247.18 482.128 244.492 480.72C237.644 477.2 233.804 476.88 233.804 472.336C233.804 470.288 234.764 468.624 236.236 467.6C237.388 466.832 238.796 466.448 240.332 466.448C243.852 466.448 248.78 468.56 251.34 477.072H252.236L251.596 467.92ZM307.322 492.56V475.664C307.322 472.528 306.362 469.84 304.57 467.984C302.906 466.192 300.538 465.168 297.594 465.168C294.97 465.168 290.106 469.264 287.29 471.568C286.778 470.032 285.946 468.752 284.922 467.728C283.258 466.128 281.018 465.168 278.202 465.168C275.578 465.168 270.906 469.136 268.09 471.376V465.936L257.338 469.84V470.736C259.642 470.096 263.802 467.472 263.802 473.616L263.866 476.624L263.93 492.88C263.738 495.76 261.114 496.976 258.362 497.104V498H273.658V497.104C270.138 496.976 268.218 495.632 268.218 492.56L268.09 472.976C269.754 471.44 272.89 468.304 275.898 468.176C281.338 468.048 283.642 473.936 283.642 480.144V492.624C283.642 495.696 280.954 497.04 278.074 497.168V498.064H293.37V497.168C289.85 497.04 287.93 495.696 287.93 492.624V475.664C287.93 474.64 287.802 473.68 287.61 472.784C289.338 471.184 292.474 468.304 295.29 468.176C300.666 468.048 303.034 473.936 303.034 480.144V492.56C303.034 495.632 300.346 496.976 297.466 497.104V498H312.762V497.104C309.242 496.976 307.322 495.632 307.322 492.56ZM341.73 494.928C340.642 494.16 340.322 492.752 340.322 490.896V475.92C340.322 472.272 339.17 469.392 337.25 467.536C335.65 466 333.41 465.168 330.53 465.168C325.858 465.168 321.186 466.512 317.986 469.072L317.154 477.2H318.05C319.714 470.8 323.874 467.408 327.458 467.28C330.018 467.216 331.938 467.984 333.282 469.392C334.946 471.056 335.714 473.68 335.842 477.136V480.208C332.642 480.848 329.954 481.232 327.458 481.808C320.29 483.408 315.81 485.904 315.81 491.856C315.81 496.72 319.842 498.832 324.578 498.832C328.098 498.832 329.57 498 332.066 496.4L335.906 492.88V498.832L346.466 496.08V495.376C344.098 495.76 342.626 495.632 341.73 494.928ZM326.37 495.568C323.938 495.568 319.97 494.672 319.97 490.896C319.97 487.376 322.018 485.392 326.434 483.856C328.802 483.024 331.874 482.32 335.842 481.424L335.906 491.344C331.81 493.84 329.186 495.568 326.37 495.568ZM357.141 492.88L357.205 458.064V447.376L346.453 451.28V452.176C348.565 451.6 352.341 449.296 352.853 453.84V492.56C352.853 495.632 350.165 496.976 347.285 497.104V498H362.581V497.104C359.189 496.976 357.269 495.696 357.141 492.88ZM375.078 492.88L375.142 458.064V447.376L364.39 451.28V452.176C366.502 451.6 370.278 449.296 370.79 453.84V492.56C370.79 495.632 368.102 496.976 365.222 497.104V498H380.518V497.104C377.126 496.976 375.206 495.696 375.078 492.88ZM432.056 492.56V475.664C432.056 472.4 430.904 469.648 428.92 467.728C427.256 466.128 424.824 465.168 421.816 465.168C418.616 465.168 412.856 469.328 409.528 471.568V465.104L398.776 469.008V469.904C401.08 469.264 405.24 466.64 405.24 472.784V492.56C405.24 495.632 402.552 496.976 399.672 497.104V498H414.968V497.104C411.448 496.976 409.528 495.632 409.528 492.56V473.168C411.384 471.76 415.352 468.176 419.064 468.176C425.4 468.176 427.768 473.168 427.768 480.144V492.56C427.768 495.632 425.08 496.976 422.2 497.104V498H437.496V497.104C433.976 496.976 432.056 495.632 432.056 492.56ZM466.48 494.928C465.392 494.16 465.072 492.752 465.072 490.896V475.92C465.072 472.272 463.92 469.392 462 467.536C460.4 466 458.16 465.168 455.28 465.168C450.608 465.168 445.936 466.512 442.736 469.072L441.904 477.2H442.8C444.464 470.8 448.624 467.408 452.208 467.28C454.768 467.216 456.688 467.984 458.032 469.392C459.696 471.056 460.464 473.68 460.592 477.136V480.208C457.392 480.848 454.704 481.232 452.208 481.808C445.04 483.408 440.56 485.904 440.56 491.856C440.56 496.72 444.592 498.832 449.328 498.832C452.848 498.832 454.32 498 456.816 496.4L460.656 492.88V498.832L471.216 496.08V495.376C468.848 495.76 467.376 495.632 466.48 494.928ZM451.12 495.568C448.688 495.568 444.72 494.672 444.72 490.896C444.72 487.376 446.768 485.392 451.184 483.856C453.552 483.024 456.624 482.32 460.592 481.424L460.656 491.344C456.56 493.84 453.936 495.568 451.12 495.568ZM492.899 492.752C490.595 494.672 489.059 495.824 486.243 495.824C484.899 495.824 483.747 495.44 482.915 494.736C481.891 493.84 481.251 492.56 481.251 491.024V467.472L490.979 467.536V466H481.251V458.96H480.291C480.355 463.056 478.371 466 472.803 466V467.472H477.027L476.963 492.56C476.963 494.352 477.795 495.952 479.139 497.04C480.547 498.192 482.531 498.832 484.899 498.832C488.291 498.832 491.235 496.016 493.667 493.584L492.899 492.752ZM503.913 456.464C504.809 456.464 505.641 456.08 506.281 455.44C506.857 454.864 507.177 454.032 507.177 453.136C507.177 452.24 506.857 451.472 506.217 450.832C505.641 450.256 504.809 449.872 503.913 449.872C503.017 449.872 502.185 450.192 501.545 450.832C500.969 451.408 500.585 452.24 500.585 453.136C500.585 453.904 500.777 454.544 501.225 455.12C501.865 455.952 502.825 456.464 503.913 456.464ZM505.705 493.52V465.936L494.953 469.84V470.736C497.257 470.096 501.417 467.472 501.417 473.616V493.456C501.289 495.248 498.601 496.976 495.849 497.104V498H511.145V497.104C507.817 496.976 505.833 495.248 505.705 493.52ZM530.3 498.96C524.988 499.024 521.084 497.168 518.204 494.096C515.644 491.28 514.172 487.248 514.108 482.448C514.044 477.328 515.644 473.04 518.78 469.968C521.468 467.28 524.86 465.232 529.66 465.168C534.076 465.104 537.724 466.832 540.412 469.008C544.06 471.888 546.044 476.496 546.172 482C546.3 486.736 544.828 490.832 542.268 493.776C539.58 496.848 535.548 498.896 530.3 498.96ZM529.02 466.896C525.308 466.96 522.748 468.56 521.084 470.928C519.356 473.36 518.652 476.752 518.652 480.4C518.652 484.752 520.06 488.848 522.236 491.856C524.668 495.248 528.124 497.36 531.836 497.36C535.036 497.36 537.596 495.76 539.324 493.072C540.86 490.704 541.628 487.504 541.564 483.92C541.5 479.376 539.964 475.088 537.724 472.016C535.42 468.816 532.284 466.832 529.02 466.896ZM582.431 492.56V475.664C582.431 472.4 581.279 469.648 579.295 467.728C577.631 466.128 575.199 465.168 572.191 465.168C568.991 465.168 563.231 469.328 559.903 471.568V465.104L549.151 469.008V469.904C551.455 469.264 555.615 466.64 555.615 472.784V492.56C555.615 495.632 552.927 496.976 550.047 497.104V498H565.343V497.104C561.823 496.976 559.903 495.632 559.903 492.56V473.168C561.759 471.76 565.727 468.176 569.439 468.176C575.775 468.176 578.143 473.168 578.143 480.144V492.56C578.143 495.632 575.455 496.976 572.575 497.104V498H587.871V497.104C584.351 496.976 582.431 495.632 582.431 492.56ZM596.567 493.456C595.991 492.816 595.159 492.368 594.263 492.304C593.431 492.24 592.599 492.496 591.831 493.136C591.255 493.648 590.807 494.48 590.743 495.248C590.679 496.016 590.743 496.72 591.191 497.36C591.703 498.192 593.431 499.408 592.983 501.52C592.727 502.8 591.575 504.08 590.295 505.552L590.999 505.808C593.623 503.568 597.271 498.256 597.271 495.888C597.335 494.992 597.143 494.096 596.567 493.456ZM289.805 532.88C287.245 530.96 283.853 530 279.757 530L269.837 535.504V512.08L259.084 515.984V516.88C260.492 516.496 262.477 515.408 263.949 515.92C264.845 516.24 265.549 517.264 265.549 519.76V560.016C268.237 561.168 272.269 562.832 276.557 562.832C280.845 562.832 284.557 561.68 287.501 559.568C290.125 557.776 292.045 555.216 293.325 552.144C294.221 549.776 294.733 547.088 294.733 544.144C294.733 539.536 293.261 535.504 289.805 532.88ZM288.013 556.624C285.837 559.568 282.509 560.592 278.797 560.592C274.445 560.592 272.397 559.184 269.837 557.264V537.104C272.909 535.568 276.237 533.392 278.285 533.392C282.509 533.392 285.773 534.928 287.885 537.424C289.741 539.664 290.701 542.672 290.701 546.064C290.701 550.992 289.677 554.384 288.013 556.624ZM323.374 530.576C322.414 529.744 321.134 529.168 319.726 529.168C315.31 529.168 310.894 533.648 308.142 538.192V529.104L297.39 533.008V533.904C298.926 533.456 301.358 532.112 302.766 533.2C303.406 533.712 303.854 534.8 303.854 536.784V536.976L303.918 557.008C303.854 558.352 303.278 559.248 302.382 559.952C301.358 560.784 299.886 561.168 298.35 561.232V562.128H317.486V561.232C315.31 561.168 312.878 560.784 311.086 559.952C309.358 559.248 308.206 558.16 308.206 556.688L308.142 540.304C310.254 537.232 313.134 531.92 317.998 531.92C319.406 531.92 320.622 532.624 321.582 533.776C323.054 535.504 324.014 538.448 324.27 541.712H325.166L325.806 533.968C325.422 532.944 324.59 531.6 323.374 530.576ZM336.475 520.464C337.371 520.464 338.203 520.08 338.843 519.44C339.419 518.864 339.739 518.032 339.739 517.136C339.739 516.24 339.419 515.472 338.779 514.832C338.203 514.256 337.371 513.872 336.475 513.872C335.579 513.872 334.747 514.192 334.107 514.832C333.531 515.408 333.147 516.24 333.147 517.136C333.147 517.904 333.339 518.544 333.787 519.12C334.427 519.952 335.387 520.464 336.475 520.464ZM338.267 557.52V529.936L327.515 533.84V534.736C329.819 534.096 333.979 531.472 333.979 537.616V557.456C333.851 559.248 331.163 560.976 328.411 561.104V562H343.707V561.104C340.379 560.976 338.395 559.248 338.267 557.52ZM379.118 556.56V539.664C379.118 536.4 377.966 533.648 375.982 531.728C374.318 530.128 371.886 529.168 368.878 529.168C365.678 529.168 359.918 533.328 356.59 535.568V529.104L345.838 533.008V533.904C348.142 533.264 352.302 530.64 352.302 536.784V556.56C352.302 559.632 349.614 560.976 346.734 561.104V562H362.03V561.104C358.51 560.976 356.59 559.632 356.59 556.56V537.168C358.446 535.76 362.414 532.176 366.126 532.176C372.462 532.176 374.83 537.168 374.83 544.144V556.56C374.83 559.632 372.142 560.976 369.262 561.104V562H384.558V561.104C381.038 560.976 379.118 559.632 379.118 556.56ZM416.935 559.44C414.695 557.648 410.919 556.624 405.351 556.112C400.935 555.664 397.607 555.024 396.071 554.192C395.367 553.872 394.983 553.488 394.983 553.04C394.983 552.208 396.391 551.184 398.311 550.032C398.887 550.096 399.527 550.16 400.103 550.16C405.415 550.16 409.639 548.56 412.007 545.808C413.415 544.208 414.183 542.16 414.183 539.856C414.183 537.424 413.223 535.12 411.559 533.328C415.015 530.896 417.319 531.344 418.215 539.024H418.727C418.727 531.664 419.303 528.464 417.575 528.464C416.487 528.464 412.903 531.024 410.855 532.56C410.215 531.984 409.447 531.408 408.615 530.96C406.695 529.936 404.391 529.296 401.767 529.296C397.415 529.296 393.895 530.704 391.655 533.136C389.991 534.928 389.095 537.232 389.095 539.984C389.095 542.736 390.119 545.104 391.783 546.896C392.999 548.112 394.535 549.072 396.327 549.584C394.535 550.672 393.255 551.504 392.487 552.208C391.527 553.104 391.207 553.808 391.207 554.768C391.207 555.92 392.039 556.752 393.831 557.52C394.279 557.712 394.791 557.84 395.367 558.032C392.743 560.784 388.455 564.56 388.455 568.336C388.455 570.192 389.159 571.728 390.375 572.88C392.295 574.672 395.559 575.632 399.527 575.632C404.455 575.632 409.447 574.48 413.223 572.624C417.062 570.768 419.623 568.208 419.623 565.392C419.623 562.832 418.791 560.848 416.935 559.44ZM395.175 533.456C396.071 531.856 397.479 530.64 399.399 530.384C402.343 530 404.903 530.768 406.695 532.624C408.039 534.032 408.999 536.016 409.383 538.576C409.703 541.072 409.319 543.504 408.295 545.36C407.335 547.216 405.671 548.56 403.559 548.88C400.999 549.264 398.823 548.432 397.159 546.96C395.559 545.488 394.47 543.312 394.087 540.88C393.639 538.32 394.023 535.568 395.175 533.456ZM413.543 570.768C411.239 572.624 407.527 573.84 403.239 573.712C399.463 573.584 396.455 572.816 394.535 571.28C393.062 570.128 392.231 568.528 392.231 566.544C392.231 563.728 395.303 560.08 396.967 558.48C399.335 559.056 402.471 559.568 406.439 560.144C413.159 561.168 415.847 563.024 415.847 566.736C415.847 568.208 415.015 569.616 413.543 570.768ZM431.35 520.464C432.246 520.464 433.078 520.08 433.718 519.44C434.294 518.864 434.614 518.032 434.614 517.136C434.614 516.24 434.294 515.472 433.654 514.832C433.078 514.256 432.246 513.872 431.35 513.872C430.454 513.872 429.622 514.192 428.982 514.832C428.406 515.408 428.022 516.24 428.022 517.136C428.022 517.904 428.214 518.544 428.662 519.12C429.302 519.952 430.262 520.464 431.35 520.464ZM433.142 557.52V529.936L422.39 533.84V534.736C424.694 534.096 428.854 531.472 428.854 537.616V557.456C428.726 559.248 426.038 560.976 423.286 561.104V562H438.582V561.104C435.254 560.976 433.27 559.248 433.142 557.52ZM473.993 556.56V539.664C473.993 536.4 472.841 533.648 470.857 531.728C469.193 530.128 466.761 529.168 463.753 529.168C460.553 529.168 454.793 533.328 451.465 535.568V529.104L440.713 533.008V533.904C443.017 533.264 447.177 530.64 447.177 536.784V556.56C447.177 559.632 444.489 560.976 441.609 561.104V562H456.905V561.104C453.385 560.976 451.465 559.632 451.465 556.56V537.168C453.321 535.76 457.289 532.176 461.001 532.176C467.337 532.176 469.705 537.168 469.705 544.144V556.56C469.705 559.632 467.017 560.976 464.137 561.104V562H479.433V561.104C475.913 560.976 473.993 559.632 473.993 556.56ZM511.81 559.44C509.57 557.648 505.794 556.624 500.226 556.112C495.81 555.664 492.482 555.024 490.946 554.192C490.242 553.872 489.858 553.488 489.858 553.04C489.858 552.208 491.266 551.184 493.186 550.032C493.762 550.096 494.402 550.16 494.978 550.16C500.29 550.16 504.514 548.56 506.882 545.808C508.29 544.208 509.058 542.16 509.058 539.856C509.058 537.424 508.098 535.12 506.434 533.328C509.89 530.896 512.194 531.344 513.09 539.024H513.602C513.602 531.664 514.178 528.464 512.45 528.464C511.362 528.464 507.778 531.024 505.73 532.56C505.09 531.984 504.322 531.408 503.49 530.96C501.57 529.936 499.266 529.296 496.642 529.296C492.29 529.296 488.77 530.704 486.53 533.136C484.866 534.928 483.97 537.232 483.97 539.984C483.97 542.736 484.994 545.104 486.658 546.896C487.874 548.112 489.41 549.072 491.202 549.584C489.41 550.672 488.13 551.504 487.362 552.208C486.402 553.104 486.082 553.808 486.082 554.768C486.082 555.92 486.914 556.752 488.706 557.52C489.154 557.712 489.666 557.84 490.242 558.032C487.618 560.784 483.33 564.56 483.33 568.336C483.33 570.192 484.034 571.728 485.25 572.88C487.17 574.672 490.434 575.632 494.402 575.632C499.33 575.632 504.322 574.48 508.098 572.624C511.938 570.768 514.498 568.208 514.498 565.392C514.498 562.832 513.666 560.848 511.81 559.44ZM490.05 533.456C490.946 531.856 492.354 530.64 494.274 530.384C497.218 530 499.778 530.768 501.57 532.624C502.914 534.032 503.874 536.016 504.258 538.576C504.578 541.072 504.194 543.504 503.17 545.36C502.21 547.216 500.546 548.56 498.434 548.88C495.874 549.264 493.698 548.432 492.034 546.96C490.434 545.488 489.345 543.312 488.962 540.88C488.514 538.32 488.898 535.568 490.05 533.456ZM508.418 570.768C506.114 572.624 502.402 573.84 498.114 573.712C494.338 573.584 491.33 572.816 489.41 571.28C487.938 570.128 487.106 568.528 487.106 566.544C487.106 563.728 490.178 560.08 491.842 558.48C494.21 559.056 497.346 559.568 501.314 560.144C508.034 561.168 510.722 563.024 510.722 566.736C510.722 568.208 509.89 569.616 508.418 570.768ZM561.105 558.928C560.017 558.16 559.697 556.752 559.697 554.896V539.92C559.697 536.272 558.545 533.392 556.625 531.536C555.025 530 552.785 529.168 549.905 529.168C545.233 529.168 540.561 530.512 537.361 533.072L536.529 541.2H537.425C539.089 534.8 543.249 531.408 546.833 531.28C549.393 531.216 551.313 531.984 552.657 533.392C554.321 535.056 555.089 537.68 555.217 541.136V544.208C552.017 544.848 549.329 545.232 546.833 545.808C539.665 547.408 535.185 549.904 535.185 555.856C535.185 560.72 539.217 562.832 543.953 562.832C547.473 562.832 548.945 562 551.441 560.4L555.281 556.88V562.832L565.841 560.08V559.376C563.473 559.76 562.001 559.632 561.105 558.928ZM545.745 559.568C543.313 559.568 539.345 558.672 539.345 554.896C539.345 551.376 541.393 549.392 545.809 547.856C548.177 547.024 551.249 546.32 555.217 545.424L555.281 555.344C551.185 557.84 548.561 559.568 545.745 559.568ZM258.831 597.776L259.215 606.288H258.319C256.975 602.064 254.863 598.416 251.727 596.56C249.935 595.472 247.887 594.896 245.519 594.896C243.087 594.896 241.103 595.92 239.631 597.648C237.263 600.464 236.175 605.072 236.175 610.064C236.175 613.136 237.071 616.016 238.607 618.32C240.783 621.52 244.239 623.568 248.399 623.568C253.007 623.568 255.183 622.224 259.087 619.728L259.791 620.24C257.807 622.288 256.079 623.888 254.287 624.976C252.239 626.192 250.063 626.832 247.183 626.832C242.895 626.832 239.247 625.424 236.623 622.928C233.679 620.112 231.951 615.888 231.951 610.704C231.951 605.392 233.743 600.464 237.007 597.136C239.503 594.704 242.767 593.168 246.671 593.168C249.295 593.168 251.407 593.552 253.391 594.384C255.247 595.152 256.911 596.24 258.831 597.776ZM279.518 626.96C274.206 627.024 270.302 625.168 267.422 622.096C264.862 619.28 263.39 615.248 263.326 610.448C263.262 605.328 264.862 601.04 267.998 597.968C270.686 595.28 274.078 593.232 278.878 593.168C283.294 593.104 286.942 594.832 289.63 597.008C293.278 599.888 295.262 604.496 295.39 610C295.518 614.736 294.046 618.832 291.486 621.776C288.798 624.848 284.766 626.896 279.518 626.96ZM278.238 594.896C274.526 594.96 271.966 596.56 270.302 598.928C268.574 601.36 267.87 604.752 267.87 608.4C267.87 612.752 269.278 616.848 271.454 619.856C273.886 623.248 277.342 625.36 281.054 625.36C284.254 625.36 286.814 623.76 288.542 621.072C290.078 618.704 290.846 615.504 290.782 611.92C290.718 607.376 289.182 603.088 286.942 600.016C284.638 596.816 281.502 594.832 278.238 594.896ZM329.921 619.216V619.024L329.857 597.2V593.168L319.105 597.072V597.968C321.409 597.328 325.569 594.704 325.569 600.848V601.424L325.633 618.832C323.649 620.88 320.961 623.824 317.249 623.824C310.785 623.824 308.545 618.704 308.545 611.856V593.168L297.793 597.072V597.968C300.097 597.328 304.257 594.704 304.257 600.848V616.336C304.257 619.664 305.345 622.48 307.457 624.4C309.185 625.936 311.553 626.832 314.497 626.832C317.697 626.832 322.305 623.632 325.633 620.432V626.896L336.385 622.992V622.096C334.081 622.736 329.921 625.36 329.921 619.216ZM371.837 620.56V603.664C371.837 600.4 370.685 597.648 368.701 595.728C367.037 594.128 364.605 593.168 361.597 593.168C358.397 593.168 352.637 597.328 349.309 599.568V593.104L338.557 597.008V597.904C340.861 597.264 345.021 594.64 345.021 600.784V620.56C345.021 623.632 342.333 624.976 339.453 625.104V626H354.749V625.104C351.229 624.976 349.309 623.632 349.309 620.56V601.168C351.165 599.76 355.133 596.176 358.845 596.176C365.181 596.176 367.549 601.168 367.549 608.144V620.56C367.549 623.632 364.861 624.976 361.981 625.104V626H377.277V625.104C373.757 624.976 371.837 623.632 371.837 620.56ZM400.117 620.752C397.813 622.672 396.277 623.824 393.461 623.824C392.117 623.824 390.965 623.44 390.133 622.736C389.109 621.84 388.469 620.56 388.469 619.024V595.472L398.197 595.536V594H388.469V586.96H387.509C387.573 591.056 385.589 594 380.021 594V595.472H384.245L384.181 620.56C384.181 622.352 385.013 623.952 386.357 625.04C387.765 626.192 389.749 626.832 392.117 626.832C395.509 626.832 398.453 624.016 400.885 621.584L400.117 620.752ZM428.155 594.576C427.195 593.744 425.915 593.168 424.507 593.168C420.091 593.168 415.675 597.648 412.923 602.192V593.104L402.171 597.008V597.904C403.707 597.456 406.139 596.112 407.547 597.2C408.187 597.712 408.635 598.8 408.635 600.784V600.976L408.699 621.008C408.635 622.352 408.059 623.248 407.163 623.952C406.139 624.784 404.667 625.168 403.131 625.232V626.128H422.267V625.232C420.091 625.168 417.659 624.784 415.867 623.952C414.139 623.248 412.987 622.16 412.987 620.688L412.923 604.304C415.035 601.232 417.915 595.92 422.779 595.92C424.187 595.92 425.403 596.624 426.363 597.776C427.835 599.504 428.795 602.448 429.051 605.712H429.947L430.587 597.968C430.203 596.944 429.371 595.6 428.155 594.576ZM451.752 594V594.896C454.696 594.768 458.024 595.92 456.936 599.696L448.68 621.008L439.784 599.888C438.568 596.496 438.44 594.96 443.048 594.896V594H429.032V594.896C433.384 595.024 433.96 596.752 435.304 599.696L446.696 626C444.392 631.056 441.384 636.048 439.464 636.048C436.968 636.048 435.56 635.28 434.6 628.88H433.96C433.96 636.24 433.512 640.08 436.456 640.08C439.144 640.08 444.52 634.256 447.976 626C448.104 625.744 448.232 625.424 448.296 625.168L458.664 599.632C460.456 595.856 462.184 594.96 464.616 594.896V594H451.752ZM487.756 584.464C488.652 584.464 489.484 584.08 490.124 583.44C490.7 582.864 491.02 582.032 491.02 581.136C491.02 580.24 490.7 579.472 490.06 578.832C489.484 578.256 488.652 577.872 487.756 577.872C486.86 577.872 486.028 578.192 485.388 578.832C484.812 579.408 484.428 580.24 484.428 581.136C484.428 581.904 484.62 582.544 485.068 583.12C485.708 583.952 486.668 584.464 487.756 584.464ZM489.548 621.52V593.936L478.796 597.84V598.736C481.1 598.096 485.26 595.472 485.26 601.616V621.456C485.132 623.248 482.444 624.976 479.692 625.104V626H494.988V625.104C491.66 624.976 489.676 623.248 489.548 621.52ZM530.399 620.56V603.664C530.399 600.4 529.247 597.648 527.263 595.728C525.599 594.128 523.167 593.168 520.159 593.168C516.959 593.168 511.199 597.328 507.871 599.568V593.104L497.119 597.008V597.904C499.423 597.264 503.583 594.64 503.583 600.784V620.56C503.583 623.632 500.895 624.976 498.015 625.104V626H513.311V625.104C509.791 624.976 507.871 623.632 507.871 620.56V601.168C509.727 599.76 513.695 596.176 517.407 596.176C523.743 596.176 526.111 601.168 526.111 608.144V620.56C526.111 623.632 523.423 624.976 520.543 625.104V626H535.839V625.104C532.319 624.976 530.399 623.632 530.399 620.56ZM558.68 620.752C556.376 622.672 554.84 623.824 552.024 623.824C550.68 623.824 549.528 623.44 548.696 622.736C547.672 621.84 547.032 620.56 547.032 619.024V595.472L556.76 595.536V594H547.032V586.96H546.072C546.136 591.056 544.152 594 538.584 594V595.472H542.808L542.744 620.56C542.744 622.352 543.576 623.952 544.92 625.04C546.328 626.192 548.312 626.832 550.68 626.832C554.072 626.832 557.016 624.016 559.448 621.584L558.68 620.752ZM578.206 626.96C572.894 627.024 568.99 625.168 566.11 622.096C563.55 619.28 562.078 615.248 562.014 610.448C561.95 605.328 563.55 601.04 566.686 597.968C569.374 595.28 572.766 593.232 577.566 593.168C581.982 593.104 585.63 594.832 588.318 597.008C591.966 599.888 593.95 604.496 594.078 610C594.206 614.736 592.734 618.832 590.174 621.776C587.486 624.848 583.454 626.896 578.206 626.96ZM576.926 594.896C573.214 594.96 570.654 596.56 568.99 598.928C567.262 601.36 566.558 604.752 566.558 608.4C566.558 612.752 567.966 616.848 570.142 619.856C572.574 623.248 576.03 625.36 579.742 625.36C582.942 625.36 585.502 623.76 587.23 621.072C588.766 618.704 589.534 615.504 589.47 611.92C589.406 607.376 587.87 603.088 585.63 600.016C583.326 596.816 580.19 594.832 576.926 594.896ZM293.056 687.44C289.28 687.44 285.824 685.648 283.648 682.64C281.984 680.4 280.96 677.456 280.96 674.064C280.96 673.36 280.96 672.656 281.024 671.952L305.664 672.592C305.664 668.944 304.512 665.168 302.208 662.224C299.776 659.216 296.128 657.168 291.328 657.168C288.256 657.168 285.568 658.128 283.392 659.728C281.152 661.328 279.424 663.632 278.272 666.384C277.184 668.88 276.608 671.76 276.608 674.704C276.608 679.504 278.016 683.216 280.32 685.904C283.135 689.168 287.36 690.832 291.84 690.832C297.792 690.832 302.08 688.464 305.152 684.624L304.448 684.112C300.544 686.608 297.664 687.44 293.056 687.44ZM283.648 662.608C285.184 660.24 287.488 658.768 290.496 658.768C293.376 658.768 295.808 660.048 297.664 661.968C299.84 664.144 301.12 667.216 301.12 669.712L281.152 670.288C281.536 667.28 282.368 664.592 283.648 662.608ZM339.186 688.4L337.522 687.312L327.026 672.528L336.882 660.816L338.866 659.6L342.258 658.96V658H328.114V659.024L331.954 659.6L333.938 660.88L326.194 671.312L318.706 660.752L320.562 659.6L323.954 658.96V658H307.826V659.024L311.666 659.6L313.01 660.496L323.058 674.704L312.498 687.184L310.45 688.4L307.058 688.976V690H321.33V688.976L317.49 688.4L315.506 687.12L323.89 675.856L331.954 687.248L330.034 688.4L326.642 689.04V690H343.026V688.976L339.186 688.4ZM352.413 648.464C353.309 648.464 354.141 648.08 354.781 647.44C355.357 646.864 355.677 646.032 355.677 645.136C355.677 644.24 355.357 643.472 354.717 642.832C354.141 642.256 353.309 641.872 352.413 641.872C351.517 641.872 350.685 642.192 350.045 642.832C349.469 643.408 349.085 644.24 349.085 645.136C349.085 645.904 349.277 646.544 349.725 647.12C350.365 647.952 351.325 648.464 352.413 648.464ZM354.205 685.52V657.936L343.453 661.84V662.736C345.757 662.096 349.917 659.472 349.917 665.616V685.456C349.789 687.248 347.101 688.976 344.349 689.104V690H359.645V689.104C356.317 688.976 354.333 687.248 354.205 685.52ZM386.096 659.92C382.64 658.192 380.272 657.168 375.6 657.168C372.528 657.168 369.904 657.808 367.6 659.216C365.424 660.56 364.016 662.608 364.016 665.488C364.016 670.16 368.432 672.144 375.792 675.664C381.168 678.224 383.472 680.336 383.472 683.28C383.472 685.136 382.704 686.736 381.296 687.76C380.144 688.656 378.608 689.168 376.688 689.168C373.296 689.168 370.48 687.888 368.368 685.712C366.448 683.664 365.104 680.72 364.656 677.264H363.76L364.016 686.992C366.512 688.464 371.248 691.088 375.536 691.088C378.288 691.088 381.168 690.256 383.408 688.848C385.904 687.248 387.696 684.88 387.696 682C387.696 679.76 386.928 678.096 385.136 676.56C383.728 675.28 381.68 674.128 378.992 672.72C372.144 669.2 368.304 668.88 368.304 664.336C368.304 662.288 369.264 660.624 370.736 659.6C371.888 658.832 373.296 658.448 374.832 658.448C378.352 658.448 383.28 660.56 385.84 669.072H386.736L386.096 659.92ZM413.086 684.752C410.782 686.672 409.246 687.824 406.43 687.824C405.086 687.824 403.934 687.44 403.102 686.736C402.078 685.84 401.438 684.56 401.438 683.024V659.472L411.166 659.536V658H401.438V650.96H400.478C400.542 655.056 398.558 658 392.99 658V659.472H397.214L397.15 684.56C397.15 686.352 397.982 687.952 399.326 689.04C400.734 690.192 402.718 690.832 405.086 690.832C408.478 690.832 411.422 688.016 413.854 685.584L413.086 684.752ZM432.868 687.44C429.092 687.44 425.636 685.648 423.46 682.64C421.796 680.4 420.772 677.456 420.772 674.064C420.772 673.36 420.772 672.656 420.836 671.952L445.476 672.592C445.476 668.944 444.324 665.168 442.02 662.224C439.588 659.216 435.94 657.168 431.14 657.168C428.068 657.168 425.38 658.128 423.204 659.728C420.964 661.328 419.236 663.632 418.084 666.384C416.996 668.88 416.42 671.76 416.42 674.704C416.42 679.504 417.828 683.216 420.132 685.904C422.948 689.168 427.172 690.832 431.652 690.832C437.604 690.832 441.892 688.464 444.964 684.624L444.26 684.112C440.356 686.608 437.476 687.44 432.868 687.44ZM423.46 662.608C424.996 660.24 427.3 658.768 430.308 658.768C433.188 658.768 435.62 660.048 437.476 661.968C439.652 664.144 440.932 667.216 440.932 669.712L420.964 670.288C421.348 667.28 422.18 664.592 423.46 662.608ZM481.431 684.56V667.664C481.431 664.4 480.279 661.648 478.295 659.728C476.631 658.128 474.199 657.168 471.191 657.168C467.991 657.168 462.231 661.328 458.903 663.568V657.104L448.151 661.008V661.904C450.455 661.264 454.615 658.64 454.615 664.784V684.56C454.615 687.632 451.927 688.976 449.047 689.104V690H464.343V689.104C460.823 688.976 458.903 687.632 458.903 684.56V665.168C460.759 663.76 464.727 660.176 468.439 660.176C474.775 660.176 477.143 665.168 477.143 672.144V684.56C477.143 687.632 474.455 688.976 471.575 689.104V690H486.871V689.104C483.351 688.976 481.431 687.632 481.431 684.56ZM516.175 661.776L516.559 670.288H515.663C514.319 666.064 512.207 662.416 509.071 660.56C507.279 659.472 505.231 658.896 502.863 658.896C500.431 658.896 498.447 659.92 496.975 661.648C494.607 664.464 493.519 669.072 493.519 674.064C493.519 677.136 494.415 680.016 495.951 682.32C498.127 685.52 501.583 687.568 505.743 687.568C510.351 687.568 512.527 686.224 516.431 683.728L517.135 684.24C515.151 686.288 513.423 687.888 511.631 688.976C509.583 690.192 507.407 690.832 504.527 690.832C500.239 690.832 496.591 689.424 493.967 686.928C491.023 684.112 489.295 679.888 489.295 674.704C489.295 669.392 491.087 664.464 494.351 661.136C496.847 658.704 500.111 657.168 504.015 657.168C506.639 657.168 508.751 657.552 510.735 658.384C512.591 659.152 514.255 660.24 516.175 661.776ZM537.118 687.44C533.342 687.44 529.886 685.648 527.71 682.64C526.046 680.4 525.022 677.456 525.022 674.064C525.022 673.36 525.022 672.656 525.086 671.952L549.726 672.592C549.726 668.944 548.574 665.168 546.27 662.224C543.838 659.216 540.19 657.168 535.39 657.168C532.318 657.168 529.63 658.128 527.454 659.728C525.214 661.328 523.486 663.632 522.334 666.384C521.246 668.88 520.67 671.76 520.67 674.704C520.67 679.504 522.078 683.216 524.382 685.904C527.198 689.168 531.422 690.832 535.902 690.832C541.854 690.832 546.142 688.464 549.214 684.624L548.51 684.112C544.606 686.608 541.726 687.44 537.118 687.44ZM527.71 662.608C529.246 660.24 531.55 658.768 534.558 658.768C537.438 658.768 539.87 660.048 541.726 661.968C543.902 664.144 545.182 667.216 545.182 669.712L525.214 670.288C525.598 667.28 526.43 664.592 527.71 662.608Z" fill="black"/>
<circle cx="670.5" cy="519.5" r="514.5" stroke="black" stroke-width="10"/>
<circle cx="1164.5" cy="519.5" r="514.5" stroke="black" stroke-width="10"/>
</svg>
